<svg xmlns="http://www.w3.org/2000/svg" viewBox="0 0 100 100"><defs><filter id="xg" x="-15%" y="-15%" width="130%" height="130%"><feGaussianBlur stdDeviation="1" result="bb"/><feMerge><feMergeNode in="bb"/><feMergeNode in="SourceGraphic"/></feMerge></filter></defs><g filter="url(#xg)"><path d="M 24.8 9.0 L 75.2 9.0 L 75.2 91.0 L 24.8 91.0 L 24.8 9.0" fill="none" stroke="#3ad06a" stroke-width=".5" opacity=".4"/><path d="M 37.4 65.8 L 37.4 72.1 L 43.7 72.1 L 43.7 65.8 L 37.4 65.8" fill="none" stroke="#3ad06a" stroke-width=".4" opacity=".25"/><path d="M 37.4 65.8 L 43.7 65.8 L 43.7 59.5 L 37.4 59.5 L 37.4 65.8" fill="none" stroke="#3ad06a" stroke-width=".4" opacity=".25"/><path d="M 37.4 72.1 L 37.4 59.5 L 24.8 59.5 L 24.8 72.1 L 37.4 72.1" fill="none" stroke="#3ad06a" stroke-width=".4" opacity=".25"/><path d="M 43.7 72.1 L 24.8 72.1 L 24.8 91.0 L 43.7 91.0 L 43.7 72.1" fill="none" stroke="#3ad06a" stroke-width=".4" opacity=".25"/><path d="M 43.7 59.5 L 43.7 91.0 L 75.2 91.0 L 75.2 59.5 L 43.7 59.5" fill="none" stroke="#3ad06a" stroke-width=".4" opacity=".25"/><path d="M 24.8 59.5 L 75.2 59.5 L 75.2 9.0 L 24.8 9.0 L 24.8 59.5" fill="none" stroke="#3ad06a" stroke-width=".4" opacity=".25"/><path d="M 37.4 70.1L 37.6 70.2L 37.9 70.3L 38.1 70.4L 38.3 70.3L 38.5 70.1L 38.8 70.0L 38.9 69.8L 39.1 69.6L 39.2 69.4L 39.4 69.3L 39.5 69.1L 39.8 69.1L 40.0 69.0L 40.2 68.9L 40.5 68.9L 40.7 68.8L 40.9 68.6L 41.1 68.5L 41.2 68.2L 41.1 67.9L 41.2 67.7L 41.2 67.5L 41.1 67.2L 41.2 67.0L 41.3 66.8L 41.4 66.6L 41.5 66.4L 41.7 66.2L 41.8 66.0L 41.8 65.8" fill="none" stroke="#4be07f" stroke-width=".55" stroke-linejoin="round" stroke-linecap="round" opacity="0.12"/><path d="M 37.4 70.7L 37.6 70.5L 37.9 70.3L 38.1 70.3L 38.3 70.0L 38.5 69.9L 38.7 69.8L 38.9 69.7L 39.1 69.6L 39.4 69.7L 39.6 69.7L 39.9 69.6L 40.1 69.5L 40.3 69.4L 40.6 69.4L 40.7 69.1L 40.8 68.9L 40.8 68.6L 40.9 68.3L 41.0 68.1L 40.9 67.8L 41.1 67.7L 41.1 67.4L 41.4 67.3L 41.7 67.2L 41.9 67.0L 42.0 66.7L 42.1 66.5L 42.1 66.3L 42.0 66.0L 42.1 65.8" fill="none" stroke="#4be07f" stroke-width=".55" stroke-linejoin="round" stroke-linecap="round" opacity="0.19"/><path d="M 37.4 70.4L 37.6 70.2L 37.8 70.1L 38.1 70.0L 38.3 70.1L 38.5 70.0L 38.8 70.1L 39.1 70.2L 39.4 70.3L 39.6 70.1L 39.9 70.1L 40.1 69.9L 40.3 69.8L 40.4 69.5L 40.5 69.2L 40.5 68.9L 40.7 68.8L 40.8 68.5L 40.9 68.3L 41.1 68.2L 41.4 68.1L 41.5 67.9L 41.9 67.8L 42.0 67.5L 42.1 67.3L 42.1 67.0L 42.0 66.8L 42.1 66.5L 42.0 66.2L 41.8 66.0L 41.7 65.8" fill="none" stroke="#4be07f" stroke-width=".55" stroke-linejoin="round" stroke-linecap="round" opacity="0.18"/><path d="M 37.4 70.4L 37.6 70.5L 37.9 70.6L 38.2 70.6L 38.4 70.7L 38.7 70.8L 39.0 70.7L 39.2 70.5L 39.5 70.4L 39.6 70.2L 39.8 70.0L 40.0 69.7L 40.0 69.4L 40.2 69.2L 40.5 69.2L 40.8 69.1L 40.9 68.9L 41.3 68.9L 41.5 68.7L 41.7 68.6L 41.9 68.4L 41.9 68.1L 42.0 67.8L 42.0 67.6L 42.0 67.3L 41.9 67.0L 41.8 66.7L 41.9 66.5L 41.9 66.2L 42.0 66.0L 42.2 65.8" fill="none" stroke="#4be07f" stroke-width=".55" stroke-linejoin="round" stroke-linecap="round" opacity="0.24"/><path d="M 37.4 70.9L 37.7 71.1L 38.0 71.2L 38.2 71.1L 38.5 70.8L 38.7 70.8L 39.0 70.6L 39.1 70.4L 39.4 70.2L 39.6 70.0L 39.7 69.8L 40.0 69.8L 40.3 69.8L 40.5 69.7L 40.9 69.7L 41.1 69.5L 41.3 69.3L 41.6 69.2L 41.7 68.9L 41.8 68.6L 41.8 68.3L 41.8 68.0L 41.9 67.8L 41.7 67.4L 41.8 67.2L 42.1 67.0L 42.2 66.8L 42.4 66.6L 42.6 66.3L 42.6 66.0L 42.7 65.8" fill="none" stroke="#4be07f" stroke-width=".55" stroke-linejoin="round" stroke-linecap="round" opacity="0.24"/><path d="M 37.4 71.2L 37.7 71.1L 37.9 71.0L 38.2 70.8L 38.4 70.6L 38.7 70.6L 38.9 70.4L 39.2 70.5L 39.4 70.4L 39.8 70.4L 40.0 70.4L 40.4 70.4L 40.6 70.2L 40.9 70.1L 41.1 69.9L 41.1 69.5L 41.2 69.2L 41.3 68.9L 41.5 68.8L 41.5 68.4L 41.7 68.3L 41.8 68.0L 42.1 67.9L 42.4 67.7L 42.6 67.5L 42.8 67.2L 42.7 66.9L 42.8 66.6L 42.9 66.3L 42.7 66.0L 42.5 65.8" fill="none" stroke="#4be07f" stroke-width=".55" stroke-linejoin="round" stroke-linecap="round" opacity="0.29"/><path d="M 37.4 70.9L 37.7 71.0L 37.9 70.9L 38.2 70.9L 38.5 70.9L 38.8 71.0L 39.1 71.1L 39.4 71.0L 39.7 71.1L 40.0 70.8L 40.2 70.7L 40.4 70.4L 40.6 70.2L 40.7 69.8L 40.9 69.7L 41.1 69.5L 41.3 69.3L 41.4 69.0L 41.7 68.9L 41.8 68.7L 42.2 68.5L 42.5 68.4L 42.6 68.1L 42.9 67.9L 42.7 67.5L 42.9 67.2L 42.7 66.9L 42.7 66.6L 42.7 66.3L 42.5 66.0L 42.5 65.8" fill="none" stroke="#4be07f" stroke-width=".55" stroke-linejoin="round" stroke-linecap="round" opacity="0.29"/><path d="M 37.4 71.1L 37.7 71.3L 38.0 71.4L 38.3 71.4L 38.6 71.7L 38.9 71.5L 39.2 71.4L 39.5 71.2L 39.7 71.1L 39.9 70.6L 40.1 70.5L 40.3 70.2L 40.5 70.0L 40.7 69.9L 41.0 69.8L 41.3 69.7L 41.6 69.6L 41.9 69.4L 42.2 69.3L 42.4 69.0L 42.5 68.7L 42.7 68.5L 42.6 68.1L 42.6 67.8L 42.6 67.5L 42.5 67.1L 42.6 66.9L 42.8 66.6L 42.8 66.3L 42.9 66.1L 43.1 65.8" fill="none" stroke="#4be07f" stroke-width=".55" stroke-linejoin="round" stroke-linecap="round" opacity="0.35"/><path d="M 37.4 71.8L 37.7 71.9L 38.0 71.8L 38.3 71.6L 38.6 71.6L 38.9 71.3L 39.1 71.1L 39.4 70.9L 39.7 70.9L 39.9 70.7L 40.2 70.6L 40.5 70.6L 40.8 70.5L 41.2 70.5L 41.5 70.4L 41.7 70.1L 42.0 69.9L 42.0 69.5L 42.1 69.2L 42.2 68.9L 42.3 68.6L 42.3 68.2L 42.5 68.0L 42.6 67.8L 42.6 67.5L 43.0 67.3L 43.1 67.0L 43.4 66.7L 43.5 66.4L 43.6 66.1L 43.6 65.8" fill="none" stroke="#4be07f" stroke-width=".55" stroke-linejoin="round" stroke-linecap="round" opacity="0.29"/><path d="M 37.4 71.9L 37.7 71.7L 38.0 71.7L 38.3 71.5L 38.6 71.3L 38.9 71.3L 39.1 71.2L 39.5 71.3L 39.9 71.3L 40.2 71.3L 40.6 71.3L 40.9 71.1L 41.1 70.8L 41.3 70.6L 41.4 70.3L 41.6 69.9L 41.8 69.8L 41.8 69.4L 42.0 69.1L 42.1 68.9L 42.4 68.6L 42.7 68.5L 43.0 68.2L 43.2 68.0L 43.5 67.7L 43.5 67.4L 43.6 67.1L 43.6 66.7L 43.5 66.4L 43.3 66.1L 43.3 65.8" fill="none" stroke="#4be07f" stroke-width=".55" stroke-linejoin="round" stroke-linecap="round" opacity="0.41"/><path d="M 37.4 71.7L 37.7 71.6L 38.0 71.7L 38.3 71.8L 38.7 71.8L 39.0 71.9L 39.4 71.9L 39.7 71.8L 40.0 71.6L 40.4 71.6L 40.6 71.3L 40.7 70.9L 41.0 70.7L 41.1 70.4L 41.3 70.1L 41.5 69.9L 41.7 69.7L 42.1 69.6L 42.5 69.5L 42.7 69.2L 43.0 69.0L 43.2 68.7L 43.3 68.4L 43.4 68.1L 43.3 67.7L 43.4 67.4L 43.3 67.0L 43.3 66.7L 43.3 66.4L 43.3 66.1L 43.4 65.8" fill="none" stroke="#4be07f" stroke-width=".55" stroke-linejoin="round" stroke-linecap="round" opacity="0.33"/><path d="M 37.4 72.1L 37.7 72.2L 38.1 72.3L 38.4 72.3L 38.8 72.4L 39.1 72.1L 39.4 71.9L 39.7 71.7L 40.0 71.6L 40.2 71.3L 40.4 71.0L 40.7 70.9L 40.9 70.6L 41.3 70.6L 41.7 70.5L 42.0 70.4L 42.2 70.1L 42.5 69.9L 42.7 69.7L 43.0 69.4L 43.1 69.1L 43.0 68.6L 43.2 68.4L 43.2 68.0L 43.1 67.6L 43.2 67.3L 43.3 67.0L 43.5 66.7L 43.6 66.4L 43.9 66.1L 44.1 65.8" fill="none" stroke="#4be07f" stroke-width=".55" stroke-linejoin="round" stroke-linecap="round" opacity="0.51"/><path d="M 37.4 72.7L 37.7 72.7L 38.1 72.5L 38.4 72.3L 38.7 72.2L 39.1 72.0L 39.3 71.8L 39.6 71.6L 40.0 71.6L 40.3 71.5L 40.6 71.4L 41.0 71.3L 41.4 71.3L 41.7 71.1L 42.0 70.9L 42.2 70.6L 42.5 70.3L 42.5 69.9L 42.7 69.6L 42.7 69.2L 42.9 69.0L 43.0 68.6L 43.1 68.3L 43.5 68.1L 43.6 67.8L 43.8 67.5L 44.0 67.2L 44.1 66.8L 44.3 66.5L 44.2 66.1L 44.2 65.8" fill="none" stroke="#4be07f" stroke-width=".55" stroke-linejoin="round" stroke-linecap="round" opacity="0.52"/><path d="M 37.4 72.6L 37.7 72.3L 38.1 72.3L 38.4 72.1L 38.7 72.1L 39.1 72.1L 39.4 72.1L 39.8 72.1L 40.2 72.0L 40.6 72.0L 40.9 71.8L 41.2 71.7L 41.5 71.5L 41.7 71.1L 41.9 70.7L 42.1 70.5L 42.2 70.1L 42.5 69.9L 42.7 69.6L 42.8 69.3L 43.2 69.1L 43.4 68.8L 43.8 68.6L 43.9 68.3L 44.1 67.9L 44.3 67.6L 44.2 67.2L 44.1 66.8L 44.1 66.5L 43.9 66.1L 43.8 65.8" fill="none" stroke="#4be07f" stroke-width=".55" stroke-linejoin="round" stroke-linecap="round" opacity="0.50"/><path d="M 37.4 72.3L 37.7 72.4L 38.1 72.5L 38.5 72.6L 38.9 72.7L 39.2 72.7L 39.7 72.8L 40.0 72.6L 40.3 72.4L 40.6 72.1L 40.9 71.8L 41.1 71.5L 41.4 71.3L 41.6 70.9L 41.9 70.8L 42.1 70.5L 42.4 70.3L 42.9 70.2L 43.1 69.9L 43.4 69.7L 43.8 69.5L 43.9 69.1L 43.9 68.7L 43.9 68.3L 43.9 67.9L 44.0 67.5L 43.9 67.1L 44.0 66.8L 44.1 66.5L 44.2 66.1L 44.2 65.8" fill="none" stroke="#4be07f" stroke-width=".55" stroke-linejoin="round" stroke-linecap="round" opacity="0.29"/><path d="M 37.4 73.2L 37.8 73.3L 38.2 73.2L 38.5 73.1L 38.9 73.0L 39.3 72.8L 39.6 72.6L 39.9 72.4L 40.2 72.2L 40.5 71.8L 40.8 71.7L 41.1 71.5L 41.6 71.5L 41.9 71.3L 42.3 71.2L 42.6 71.0L 43.0 70.8L 43.2 70.5L 43.4 70.1L 43.6 69.8L 43.6 69.4L 43.8 69.0L 43.7 68.6L 43.7 68.2L 43.9 67.9L 44.1 67.6L 44.2 67.2L 44.4 66.9L 44.5 66.5L 44.7 66.2L 44.9 65.8" fill="none" stroke="#4be07f" stroke-width=".55" stroke-linejoin="round" stroke-linecap="round" opacity="0.26"/><path d="M 37.4 73.4L 37.8 73.3L 38.2 73.1L 38.5 72.9L 38.9 72.7L 39.2 72.7L 39.5 72.4L 39.9 72.4L 40.3 72.3L 40.7 72.4L 41.1 72.2L 41.5 72.0L 41.9 72.0L 42.2 71.7L 42.4 71.4L 42.8 71.2L 42.9 70.8L 43.0 70.3L 43.2 70.0L 43.2 69.6L 43.4 69.2L 43.6 69.0L 43.9 68.7L 44.1 68.4L 44.6 68.1L 44.8 67.8L 44.9 67.4L 45.0 67.0L 45.0 66.6L 45.0 66.2L 44.7 65.8" fill="none" stroke="#4be07f" stroke-width=".55" stroke-linejoin="round" stroke-linecap="round" opacity="0.38"/><path d="M 37.4 73.1L 37.8 73.0L 38.1 72.9L 38.5 72.9L 38.9 72.9L 39.3 72.9L 39.8 73.1L 40.2 73.0L 40.6 73.0L 41.0 72.8L 41.3 72.5L 41.6 72.3L 41.9 72.0L 42.0 71.5L 42.3 71.2L 42.6 70.9L 42.8 70.7L 43.0 70.3L 43.4 70.1L 43.6 69.8L 43.9 69.5L 44.3 69.3L 44.6 69.0L 44.7 68.6L 44.8 68.2L 44.8 67.8L 44.8 67.4L 44.7 66.9L 44.8 66.5L 44.8 66.2L 44.6 65.8" fill="none" stroke="#4be07f" stroke-width=".55" stroke-linejoin="round" stroke-linecap="round" opacity="0.17"/><path d="M 37.4 73.2L 37.8 73.4L 38.2 73.5L 38.6 73.5L 39.0 73.5L 39.4 73.5L 39.9 73.4L 40.2 73.2L 40.6 73.0L 40.9 72.6L 41.2 72.4L 41.5 72.1L 41.7 71.7L 42.1 71.5L 42.4 71.3L 42.8 71.1L 43.1 70.9L 43.6 70.8L 43.8 70.4L 44.2 70.2L 44.3 69.7L 44.5 69.4L 44.6 69.0L 44.6 68.6L 44.6 68.1L 44.6 67.7L 44.8 67.3L 44.7 66.9L 44.9 66.6L 45.0 66.2L 45.2 65.8" fill="none" stroke="#4be07f" stroke-width=".55" stroke-linejoin="round" stroke-linecap="round" opacity="0.20"/><path d="M 37.4 74.0L 37.8 74.0L 38.3 74.0L 38.6 73.8L 39.1 73.6L 39.4 73.4L 39.8 73.2L 40.1 72.9L 40.5 72.8L 40.9 72.6L 41.2 72.5L 41.7 72.4L 42.0 72.1L 42.5 72.1L 42.9 71.9L 43.2 71.6L 43.5 71.3L 43.7 70.9L 43.9 70.5L 44.0 70.1L 44.1 69.6L 44.2 69.3L 44.3 68.9L 44.5 68.5L 44.6 68.1L 44.9 67.8L 45.2 67.4L 45.4 67.0L 45.6 66.6L 45.5 66.2L 45.6 65.8" fill="none" stroke="#4be07f" stroke-width=".55" stroke-linejoin="round" stroke-linecap="round" opacity="0.21"/><path d="M 37.4 74.1L 37.8 74.0L 38.2 73.8L 38.6 73.5L 39.0 73.4L 39.4 73.3L 39.8 73.2L 40.2 73.2L 40.7 73.3L 41.1 73.1L 41.6 73.0L 41.9 72.8L 42.4 72.6L 42.7 72.3L 43.0 72.0L 43.1 71.5L 43.3 71.1L 43.6 70.8L 43.7 70.4L 43.9 70.0L 44.1 69.7L 44.5 69.4L 44.8 69.1L 45.1 68.7L 45.4 68.4L 45.5 67.9L 45.7 67.5L 45.7 67.1L 45.7 66.6L 45.6 66.2L 45.4 65.8" fill="none" stroke="#4be07f" stroke-width=".55" stroke-linejoin="round" stroke-linecap="round" opacity="0.10"/><path d="M 37.4 73.8L 37.8 73.7L 38.2 73.9L 38.7 73.8L 39.1 73.8L 39.5 73.8L 40.0 73.8L 40.5 73.8L 40.9 73.7L 41.3 73.5L 41.6 73.1L 42.0 72.8L 42.2 72.5L 42.5 72.1L 42.7 71.7L 43.0 71.4L 43.4 71.2L 43.7 70.8L 44.1 70.6L 44.5 70.4L 44.8 70.1L 45.2 69.7L 45.3 69.3L 45.4 68.8L 45.6 68.4L 45.5 68.0L 45.5 67.5L 45.5 67.1L 45.3 66.6L 45.3 66.2L 45.5 65.8" fill="none" stroke="#4be07f" stroke-width=".55" stroke-linejoin="round" stroke-linecap="round" opacity="0.16"/><path d="M 41.7 65.8L 41.8 65.5L 41.9 65.3L 42.0 65.0L 41.8 64.8L 41.7 64.6L 41.6 64.4L 41.4 64.2L 41.2 64.1L 41.1 63.9L 40.8 63.8L 40.7 63.6L 40.7 63.3L 40.6 63.1L 40.5 62.9L 40.5 62.7L 40.5 62.4L 40.3 62.2L 40.1 62.0L 39.8 62.0L 39.6 62.0L 39.3 62.0L 39.0 62.1L 38.8 62.0L 38.6 62.1L 38.4 61.9L 38.2 61.8L 38.0 61.6L 37.8 61.5L 37.6 61.4L 37.4 61.2" fill="none" stroke="#4be07f" stroke-width=".55" stroke-linejoin="round" stroke-linecap="round" opacity="0.10"/><path d="M 42.2 65.8L 42.1 65.5L 42.0 65.3L 41.8 65.1L 41.6 64.9L 41.5 64.7L 41.3 64.5L 41.3 64.3L 41.2 64.1L 41.3 63.8L 41.3 63.5L 41.3 63.2L 41.3 62.9L 41.1 62.8L 41.0 62.5L 40.7 62.4L 40.5 62.3L 40.3 62.2L 39.9 62.3L 39.7 62.2L 39.5 62.1L 39.3 62.0L 39.1 62.0L 38.9 61.8L 38.7 61.6L 38.6 61.3L 38.4 61.1L 38.1 60.9L 37.9 61.0L 37.6 61.1L 37.4 61.1" fill="none" stroke="#4be07f" stroke-width=".55" stroke-linejoin="round" stroke-linecap="round" opacity="0.22"/><path d="M 42.0 65.8L 41.9 65.5L 41.8 65.3L 41.7 65.1L 41.6 64.9L 41.7 64.6L 41.7 64.4L 41.8 64.1L 41.8 63.8L 41.8 63.5L 41.7 63.3L 41.5 63.1L 41.2 63.0L 41.0 62.8L 40.7 62.8L 40.6 62.6L 40.4 62.5L 40.1 62.4L 39.9 62.3L 39.8 62.0L 39.6 61.9L 39.5 61.6L 39.3 61.4L 39.2 61.1L 38.9 61.1L 38.6 61.1L 38.4 60.9L 38.1 61.2L 37.9 61.3L 37.6 61.2L 37.4 61.5" fill="none" stroke="#4be07f" stroke-width=".55" stroke-linejoin="round" stroke-linecap="round" opacity="0.25"/><path d="M 42.1 65.8L 42.0 65.5L 42.1 65.3L 42.3 65.0L 42.4 64.7L 42.4 64.4L 42.4 64.1L 42.3 63.9L 42.1 63.7L 41.9 63.5L 41.5 63.4L 41.3 63.2L 41.1 63.1L 41.0 62.9L 40.7 62.8L 40.6 62.5L 40.6 62.2L 40.5 61.9L 40.3 61.7L 40.1 61.5L 40.0 61.3L 39.7 61.1L 39.4 61.2L 39.2 61.1L 38.9 61.2L 38.6 61.3L 38.3 61.3L 38.1 61.3L 37.9 61.1L 37.6 61.2L 37.4 61.0" fill="none" stroke="#4be07f" stroke-width=".55" stroke-linejoin="round" stroke-linecap="round" opacity="0.16"/><path d="M 42.7 65.8L 42.8 65.5L 42.6 65.2L 42.8 64.9L 42.5 64.7L 42.4 64.4L 42.3 64.2L 41.9 64.0L 41.7 63.9L 41.7 63.6L 41.5 63.4L 41.4 63.1L 41.4 62.9L 41.4 62.5L 41.2 62.3L 41.2 62.0L 41.0 61.7L 40.8 61.5L 40.5 61.5L 40.2 61.4L 40.0 61.3L 39.6 61.5L 39.3 61.4L 39.1 61.3L 38.8 61.3L 38.7 61.0L 38.4 60.9L 38.2 60.7L 37.9 60.6L 37.7 60.5L 37.4 60.3" fill="none" stroke="#4be07f" stroke-width=".55" stroke-linejoin="round" stroke-linecap="round" opacity="0.25"/><path d="M 42.9 65.8L 42.9 65.5L 42.5 65.2L 42.3 65.0L 42.2 64.7L 42.1 64.5L 42.1 64.2L 42.0 64.0L 42.0 63.7L 42.1 63.4L 42.1 63.1L 42.1 62.7L 41.9 62.5L 41.8 62.2L 41.4 62.2L 41.3 61.9L 40.9 61.9L 40.6 61.8L 40.4 61.7L 40.1 61.6L 39.9 61.4L 39.7 61.2L 39.5 61.0L 39.3 60.9L 39.1 60.6L 38.8 60.4L 38.5 60.4L 38.3 60.2L 38.0 60.2L 37.7 60.4L 37.4 60.5" fill="none" stroke="#4be07f" stroke-width=".55" stroke-linejoin="round" stroke-linecap="round" opacity="0.39"/><path d="M 42.7 65.8L 42.5 65.5L 42.5 65.2L 42.5 65.0L 42.6 64.7L 42.5 64.4L 42.7 64.0L 42.6 63.8L 42.7 63.4L 42.4 63.2L 42.3 63.0L 42.1 62.7L 41.8 62.6L 41.6 62.4L 41.3 62.2L 41.1 62.1L 40.9 61.9L 40.6 61.7L 40.5 61.4L 40.4 61.2L 40.2 60.9L 40.0 60.7L 39.7 60.5L 39.4 60.4L 39.2 60.3L 38.8 60.4L 38.5 60.4L 38.2 60.4L 37.9 60.7L 37.7 60.7L 37.4 60.6" fill="none" stroke="#4be07f" stroke-width=".55" stroke-linejoin="round" stroke-linecap="round" opacity="0.38"/><path d="M 42.8 65.8L 43.0 65.5L 43.0 65.2L 43.2 64.8L 43.2 64.5L 43.1 64.2L 42.9 64.0L 42.8 63.7L 42.7 63.4L 42.3 63.3L 42.1 63.1L 41.9 62.8L 41.7 62.6L 41.6 62.3L 41.4 62.2L 41.3 61.8L 41.3 61.5L 41.1 61.2L 40.9 60.9L 40.6 60.8L 40.4 60.6L 40.0 60.6L 39.7 60.6L 39.4 60.6L 39.1 60.6L 38.8 60.5L 38.5 60.6L 38.2 60.5L 38.0 60.4L 37.7 60.1L 37.4 60.0" fill="none" stroke="#4be07f" stroke-width=".55" stroke-linejoin="round" stroke-linecap="round" opacity="0.34"/><path d="M 43.5 65.8L 43.5 65.5L 43.6 65.1L 43.4 64.8L 43.2 64.5L 42.9 64.3L 42.7 64.0L 42.6 63.8L 42.3 63.6L 42.3 63.3L 42.2 63.0L 42.1 62.7L 42.1 62.3L 42.0 62.0L 41.9 61.7L 41.7 61.4L 41.5 61.2L 41.2 61.0L 40.9 60.9L 40.6 60.8L 40.2 60.9L 39.9 60.8L 39.7 60.6L 39.4 60.6L 39.1 60.5L 38.8 60.3L 38.6 60.0L 38.3 59.8L 38.0 59.6L 37.7 59.7L 37.4 59.7" fill="none" stroke="#4be07f" stroke-width=".55" stroke-linejoin="round" stroke-linecap="round" opacity="0.34"/><path d="M 43.5 65.8L 43.3 65.5L 43.3 65.1L 43.2 64.9L 42.9 64.6L 42.9 64.3L 42.9 64.0L 43.0 63.6L 42.9 63.3L 42.9 62.9L 42.9 62.6L 42.6 62.4L 42.5 62.1L 42.2 61.8L 41.9 61.7L 41.6 61.6L 41.3 61.5L 41.0 61.3L 40.7 61.2L 40.5 61.0L 40.2 60.8L 40.1 60.4L 39.8 60.3L 39.6 60.0L 39.3 59.8L 39.0 59.7L 38.7 59.6L 38.4 59.5L 38.0 59.7L 37.7 59.8L 37.4 59.9" fill="none" stroke="#4be07f" stroke-width=".55" stroke-linejoin="round" stroke-linecap="round" opacity="0.43"/><path d="M 43.3 65.8L 43.3 65.5L 43.4 65.1L 43.3 64.8L 43.5 64.5L 43.6 64.1L 43.5 63.8L 43.4 63.5L 43.4 63.1L 43.1 62.9L 42.8 62.6L 42.7 62.3L 42.3 62.2L 42.0 62.0L 41.8 61.7L 41.6 61.6L 41.4 61.3L 41.2 61.1L 41.1 60.7L 40.8 60.5L 40.6 60.2L 40.4 59.9L 40.0 59.9L 39.7 59.7L 39.4 59.6L 39.0 59.8L 38.6 59.8L 38.3 59.8L 38.0 59.8L 37.7 59.9L 37.4 59.8" fill="none" stroke="#4be07f" stroke-width=".55" stroke-linejoin="round" stroke-linecap="round" opacity="0.42"/><path d="M 43.8 65.8L 43.8 65.4L 44.0 65.1L 44.1 64.7L 44.0 64.4L 43.9 64.0L 43.6 63.7L 43.5 63.4L 43.1 63.2L 43.0 62.9L 42.6 62.7L 42.5 62.5L 42.3 62.2L 42.2 61.9L 42.1 61.5L 41.9 61.2L 41.8 60.8L 41.6 60.6L 41.4 60.3L 41.0 60.3L 40.7 60.0L 40.3 60.1L 39.9 60.1L 39.6 60.0L 39.3 59.9L 38.9 60.0L 38.6 59.9L 38.4 59.6L 38.0 59.5L 37.7 59.2L 37.4 59.2" fill="none" stroke="#4be07f" stroke-width=".55" stroke-linejoin="round" stroke-linecap="round" opacity="0.43"/><path d="M 44.4 65.8L 44.3 65.4L 44.1 65.1L 43.9 64.7L 43.8 64.4L 43.7 64.1L 43.3 63.8L 43.3 63.5L 43.2 63.2L 43.0 62.9L 43.0 62.5L 43.1 62.1L 42.9 61.8L 42.7 61.4L 42.6 61.1L 42.2 61.0L 41.9 60.8L 41.6 60.6L 41.2 60.5L 40.9 60.4L 40.6 60.3L 40.2 60.2L 39.9 60.1L 39.7 59.8L 39.4 59.6L 39.1 59.3L 38.8 59.2L 38.5 59.0L 38.1 58.9L 37.7 58.8L 37.4 59.0" fill="none" stroke="#4be07f" stroke-width=".55" stroke-linejoin="round" stroke-linecap="round" opacity="0.42"/><path d="M 44.0 65.8L 44.0 65.4L 43.9 65.1L 43.8 64.8L 43.8 64.4L 43.7 64.1L 43.8 63.7L 43.7 63.3L 43.8 62.9L 43.7 62.6L 43.5 62.3L 43.4 61.9L 43.0 61.7L 42.8 61.4L 42.4 61.3L 42.0 61.2L 41.7 61.0L 41.4 60.8L 41.2 60.5L 41.0 60.2L 40.7 60.1L 40.5 59.6L 40.2 59.5L 39.9 59.2L 39.6 59.0L 39.2 58.9L 38.9 58.9L 38.5 58.9L 38.1 59.2L 37.7 59.2L 37.4 59.3" fill="none" stroke="#4be07f" stroke-width=".55" stroke-linejoin="round" stroke-linecap="round" opacity="0.54"/><path d="M 44.1 65.8L 44.0 65.4L 44.1 65.1L 44.4 64.7L 44.4 64.3L 44.5 63.9L 44.3 63.5L 44.2 63.2L 44.0 62.8L 43.8 62.5L 43.5 62.3L 43.1 62.0L 42.8 61.8L 42.6 61.5L 42.4 61.2L 42.2 61.0L 42.0 60.7L 41.8 60.3L 41.6 59.9L 41.4 59.6L 41.1 59.4L 40.7 59.2L 40.3 59.3L 39.9 59.2L 39.5 59.2L 39.2 59.1L 38.8 59.3L 38.4 59.3L 38.1 59.2L 37.7 59.0L 37.4 58.9" fill="none" stroke="#4be07f" stroke-width=".55" stroke-linejoin="round" stroke-linecap="round" opacity="0.28"/><path d="M 44.8 65.8L 44.7 65.4L 44.8 65.0L 44.7 64.6L 44.7 64.2L 44.4 63.9L 44.3 63.5L 44.0 63.2L 43.7 62.9L 43.5 62.6L 43.3 62.4L 43.2 62.0L 43.0 61.7L 43.0 61.2L 42.8 60.9L 42.6 60.6L 42.4 60.1L 42.1 60.0L 41.7 59.8L 41.4 59.6L 41.0 59.6L 40.6 59.5L 40.2 59.5L 39.8 59.4L 39.5 59.3L 39.2 59.0L 38.8 58.9L 38.5 58.7L 38.2 58.5L 37.8 58.3L 37.4 58.2" fill="none" stroke="#4be07f" stroke-width=".55" stroke-linejoin="round" stroke-linecap="round" opacity="0.35"/><path d="M 45.0 65.8L 45.0 65.4L 44.7 65.0L 44.7 64.6L 44.3 64.3L 44.3 63.9L 44.1 63.6L 43.9 63.3L 43.9 62.9L 44.0 62.4L 43.8 62.1L 43.7 61.7L 43.6 61.2L 43.4 60.9L 43.1 60.6L 42.7 60.5L 42.3 60.3L 41.9 60.2L 41.6 59.9L 41.3 59.8L 40.9 59.6L 40.6 59.5L 40.3 59.2L 40.0 58.9L 39.7 58.6L 39.4 58.4L 39.0 58.2L 38.6 58.2L 38.2 58.3L 37.8 58.3L 37.4 58.3" fill="none" stroke="#4be07f" stroke-width=".55" stroke-linejoin="round" stroke-linecap="round" opacity="0.39"/><path d="M 44.8 65.8L 44.6 65.4L 44.7 65.0L 44.5 64.6L 44.5 64.2L 44.6 63.8L 44.7 63.4L 44.7 63.0L 44.4 62.6L 44.3 62.2L 44.1 61.9L 43.8 61.6L 43.5 61.3L 43.3 61.0L 42.8 60.9L 42.5 60.6L 42.2 60.4L 42.0 60.1L 41.7 59.8L 41.5 59.4L 41.2 59.2L 40.9 58.9L 40.6 58.6L 40.2 58.4L 39.8 58.2L 39.4 58.2L 39.0 58.3L 38.6 58.4L 38.1 58.5L 37.8 58.4L 37.4 58.5" fill="none" stroke="#4be07f" stroke-width=".55" stroke-linejoin="round" stroke-linecap="round" opacity="0.28"/><path d="M 44.9 65.8L 44.9 65.4L 45.1 65.0L 45.2 64.5L 45.2 64.1L 45.2 63.7L 45.1 63.3L 44.8 62.9L 44.5 62.6L 44.3 62.3L 43.9 62.0L 43.7 61.6L 43.3 61.4L 43.2 61.0L 42.9 60.8L 42.8 60.3L 42.6 60.0L 42.4 59.6L 42.1 59.3L 41.7 59.1L 41.5 58.7L 41.0 58.8L 40.6 58.6L 40.2 58.5L 39.7 58.7L 39.3 58.5L 38.9 58.5L 38.5 58.5L 38.2 58.2L 37.8 58.1L 37.4 58.1" fill="none" stroke="#4be07f" stroke-width=".55" stroke-linejoin="round" stroke-linecap="round" opacity="0.18"/><path d="M 45.5 65.8L 45.6 65.3L 45.7 64.9L 45.5 64.5L 45.4 64.1L 45.1 63.7L 44.7 63.4L 44.6 63.0L 44.3 62.7L 44.1 62.4L 44.0 62.0L 44.0 61.5L 43.8 61.1L 43.7 60.6L 43.4 60.4L 43.3 59.9L 42.9 59.7L 42.5 59.5L 42.1 59.2L 41.7 59.2L 41.3 58.9L 40.9 58.9L 40.5 58.9L 40.1 58.6L 39.8 58.5L 39.4 58.2L 39.0 58.0L 38.7 57.7L 38.2 57.5L 37.8 57.6L 37.4 57.5" fill="none" stroke="#4be07f" stroke-width=".55" stroke-linejoin="round" stroke-linecap="round" opacity="0.17"/><path d="M 45.8 65.8L 45.6 65.3L 45.4 64.9L 45.1 64.5L 45.0 64.2L 44.9 63.8L 44.9 63.3L 44.8 62.9L 44.7 62.5L 44.7 62.1L 44.7 61.6L 44.5 61.1L 44.2 60.8L 43.9 60.5L 43.5 60.3L 43.2 60.0L 42.7 59.9L 42.4 59.5L 42.0 59.4L 41.6 59.3L 41.3 59.0L 41.0 58.7L 40.7 58.3L 40.4 58.0L 40.0 57.8L 39.6 57.6L 39.1 57.6L 38.7 57.4L 38.3 57.5L 37.8 57.6L 37.4 57.7" fill="none" stroke="#4be07f" stroke-width=".55" stroke-linejoin="round" stroke-linecap="round" opacity="0.16"/><path d="M 45.4 65.8L 45.4 65.4L 45.3 64.9L 45.4 64.5L 45.4 64.1L 45.4 63.6L 45.6 63.1L 45.5 62.7L 45.3 62.2L 45.0 61.9L 44.8 61.5L 44.4 61.2L 44.0 60.9L 43.6 60.7L 43.3 60.4L 43.0 60.2L 42.8 59.7L 42.5 59.5L 42.2 59.1L 41.9 58.8L 41.7 58.3L 41.3 58.0L 40.9 57.9L 40.4 57.8L 40.0 57.6L 39.5 57.7L 39.1 57.7L 38.6 57.8L 38.2 57.7L 37.8 57.7L 37.4 57.8" fill="none" stroke="#4be07f" stroke-width=".55" stroke-linejoin="round" stroke-linecap="round" opacity="0.16"/><path d="M 37.4 63.6L 36.9 63.1L 36.4 63.0L 35.9 63.0L 35.5 63.1L 35.0 63.2L 34.6 63.5L 34.2 63.9L 33.9 64.3L 33.8 65.0L 33.4 65.1L 33.0 65.3L 32.7 65.6L 32.1 65.6L 31.8 65.8L 31.1 65.7L 30.5 65.9L 30.2 66.3L 29.8 66.6L 29.9 67.2L 29.8 67.7L 29.9 68.3L 29.8 68.7L 30.0 69.3L 29.9 69.6L 29.7 70.0L 29.6 70.4L 29.0 70.7L 29.0 71.2L 28.6 71.6L 28.3 72.1" fill="none" stroke="#4be07f" stroke-width=".55" stroke-linejoin="round" stroke-linecap="round" opacity="0.14"/><path d="M 37.4 62.5L 36.9 62.6L 36.4 62.7L 36.0 63.1L 35.5 63.3L 35.1 63.7L 34.7 64.0L 34.4 64.2L 34.0 64.4L 33.4 64.2L 33.0 64.5L 32.5 64.5L 31.7 64.3L 31.4 64.7L 31.0 65.0L 30.6 65.3L 30.6 66.0L 30.5 66.5L 30.3 66.9L 30.4 67.6L 30.0 67.8L 30.1 68.4L 29.8 68.7L 29.2 68.9L 28.8 69.3L 28.3 69.7L 28.3 70.1L 27.8 70.6L 27.9 71.1L 27.7 71.6L 27.9 72.1" fill="none" stroke="#4be07f" stroke-width=".55" stroke-linejoin="round" stroke-linecap="round" opacity="0.11"/><path d="M 37.4 62.8L 36.9 63.1L 36.5 63.2L 36.0 63.6L 35.5 63.4L 35.1 63.5L 34.5 63.3L 34.0 63.3L 33.4 63.2L 32.9 63.3L 32.3 63.3L 31.9 63.7L 31.7 64.2L 31.4 64.7L 31.1 65.1L 31.2 65.8L 30.8 66.1L 30.7 66.7L 30.3 66.9L 30.0 67.3L 29.3 67.4L 28.9 67.8L 28.4 68.1L 28.3 68.6L 27.8 69.0L 28.0 69.6L 27.9 70.1L 27.9 70.6L 28.1 71.1L 28.6 71.6L 28.6 72.1" fill="none" stroke="#4be07f" stroke-width=".55" stroke-linejoin="round" stroke-linecap="round" opacity="0.13"/><path d="M 37.4 63.1L 36.9 62.7L 36.4 62.8L 35.8 62.2L 35.3 62.3L 34.8 62.3L 34.2 62.2L 33.6 62.2L 33.3 62.8L 33.0 63.4L 32.6 63.8L 32.3 64.2L 31.9 64.5L 31.5 64.9L 31.1 65.1L 30.7 65.4L 30.3 65.7L 29.9 66.0L 29.2 66.2L 28.8 66.5L 28.3 66.9L 28.2 67.4L 28.0 67.9L 28.1 68.5L 28.4 69.2L 28.3 69.7L 28.4 70.2L 28.2 70.6L 28.1 71.1L 28.0 71.6L 27.8 72.1" fill="none" stroke="#4be07f" stroke-width=".55" stroke-linejoin="round" stroke-linecap="round" opacity="0.21"/><path d="M 37.4 61.7L 36.8 61.6L 36.3 61.3L 35.7 61.6L 35.2 61.9L 34.7 62.0L 34.3 62.6L 33.9 62.9L 33.4 63.2L 33.0 63.5L 32.7 63.9L 32.2 64.1L 31.6 64.2L 30.9 64.1L 30.3 64.2L 29.8 64.5L 29.5 65.0L 29.2 65.4L 28.8 65.8L 28.7 66.5L 28.7 67.0L 28.8 67.7L 28.6 68.2L 28.5 68.7L 28.2 69.1L 28.0 69.6L 27.6 70.0L 27.3 70.5L 27.2 71.0L 26.9 71.5L 26.8 72.1" fill="none" stroke="#4be07f" stroke-width=".55" stroke-linejoin="round" stroke-linecap="round" opacity="0.35"/><path d="M 37.4 61.2L 36.8 61.5L 36.3 61.8L 35.8 62.2L 35.3 62.1L 34.8 62.4L 34.3 62.6L 33.8 62.8L 33.2 62.8L 32.5 62.6L 32.0 62.7L 31.4 62.9L 30.7 62.9L 30.5 63.6L 30.0 63.9L 29.9 64.6L 29.5 65.0L 29.4 65.6L 29.3 66.2L 29.2 66.7L 28.9 67.2L 28.4 67.5L 28.1 68.0L 27.4 68.3L 27.2 68.8L 26.9 69.3L 26.4 69.8L 26.4 70.3L 26.6 70.9L 26.8 71.5L 26.9 72.1" fill="none" stroke="#4be07f" stroke-width=".55" stroke-linejoin="round" stroke-linecap="round" opacity="0.30"/><path d="M 37.4 61.7L 36.8 61.9L 36.3 61.8L 35.8 61.9L 35.2 62.0L 34.6 61.5L 34.0 61.6L 33.3 61.3L 32.6 61.4L 32.2 61.9L 31.6 62.0L 31.2 62.5L 30.9 63.2L 30.6 63.7L 30.3 64.2L 30.2 64.9L 29.9 65.3L 29.4 65.6L 28.8 65.9L 28.3 66.2L 27.6 66.4L 27.1 66.8L 27.0 67.4L 26.5 67.9L 26.5 68.5L 26.7 69.2L 26.5 69.8L 26.7 70.4L 26.8 71.0L 27.3 71.5L 27.2 72.1" fill="none" stroke="#4be07f" stroke-width=".55" stroke-linejoin="round" stroke-linecap="round" opacity="0.39"/><path d="M 37.4 61.2L 36.8 60.8L 36.2 60.7L 35.5 60.4L 35.0 60.7L 34.3 60.7L 33.7 60.6L 33.2 61.2L 32.7 61.5L 32.4 62.3L 32.0 62.7L 31.6 63.1L 31.2 63.6L 30.5 63.6L 30.2 64.1L 29.7 64.3L 29.0 64.5L 28.4 64.8L 27.9 65.2L 27.5 65.7L 27.1 66.1L 27.0 66.8L 27.0 67.4L 26.9 68.0L 27.0 68.7L 27.1 69.3L 26.9 69.9L 26.8 70.4L 26.6 70.9L 26.0 71.5L 26.0 72.1" fill="none" stroke="#4be07f" stroke-width=".55" stroke-linejoin="round" stroke-linecap="round" opacity="0.29"/><path d="M 37.4 59.7L 36.7 59.6L 36.1 59.8L 35.5 60.1L 34.9 60.5L 34.4 61.1L 33.9 61.2L 33.4 61.8L 32.8 61.9L 32.5 62.4L 31.8 62.4L 31.0 62.3L 30.4 62.5L 29.8 62.7L 29.4 63.2L 28.6 63.3L 28.4 64.0L 27.9 64.4L 27.9 65.2L 27.6 65.7L 27.5 66.4L 27.6 67.1L 27.2 67.6L 27.0 68.1L 26.7 68.6L 26.1 69.1L 26.1 69.7L 25.7 70.2L 25.2 70.8L 25.3 71.4L 25.2 72.1" fill="none" stroke="#4be07f" stroke-width=".55" stroke-linejoin="round" stroke-linecap="round" opacity="0.41"/><path d="M 37.4 60.0L 36.8 60.2L 36.1 60.3L 35.6 60.7L 35.1 61.1L 34.4 60.8L 33.8 60.9L 33.1 61.0L 32.5 61.0L 31.8 61.1L 31.1 61.1L 30.5 61.4L 30.0 62.0L 29.5 62.3L 29.0 62.8L 29.0 63.7L 28.6 64.2L 28.5 64.9L 28.2 65.4L 27.6 65.7L 27.5 66.4L 27.0 66.8L 26.3 67.2L 25.8 67.6L 25.5 68.2L 25.0 68.8L 25.0 69.4L 25.1 70.1L 25.1 70.8L 25.3 71.4L 25.6 72.1" fill="none" stroke="#4be07f" stroke-width=".55" stroke-linejoin="round" stroke-linecap="round" opacity="0.32"/><path d="M 37.4 60.3L 36.8 60.3L 36.1 60.2L 35.5 60.1L 34.8 60.1L 34.1 59.6L 33.3 59.6L 32.7 59.8L 32.1 60.2L 31.5 60.4L 30.9 60.9L 30.6 61.7L 30.3 62.3L 29.9 62.9L 29.4 63.2L 29.1 63.8L 28.5 64.1L 27.8 64.3L 27.5 64.9L 26.7 65.1L 26.3 65.7L 25.8 66.2L 25.5 66.8L 25.3 67.5L 25.2 68.1L 25.4 68.9L 25.6 69.6L 25.8 70.2L 25.6 70.8L 25.7 71.5L 25.6 72.1" fill="none" stroke="#4be07f" stroke-width=".55" stroke-linejoin="round" stroke-linecap="round" opacity="0.40"/><path d="M 37.4 59.4L 36.7 59.3L 36.0 58.8L 35.3 58.8L 34.6 59.1L 33.9 59.0L 33.3 59.6L 32.8 60.2L 32.2 60.5L 31.8 61.0L 31.3 61.6L 30.8 62.0L 30.2 62.2L 29.5 62.4L 28.9 62.7L 28.3 63.0L 27.7 63.3L 26.8 63.5L 26.4 64.1L 26.3 64.9L 26.0 65.5L 26.1 66.3L 25.9 67.0L 25.7 67.6L 25.6 68.3L 25.7 69.0L 25.3 69.5L 25.3 70.2L 24.8 70.8L 24.4 71.4L 24.1 72.1" fill="none" stroke="#4be07f" stroke-width=".55" stroke-linejoin="round" stroke-linecap="round" opacity="0.48"/><path d="M 37.4 58.3L 36.7 58.1L 36.0 58.7L 35.3 58.8L 34.6 59.2L 34.1 59.8L 33.4 59.9L 32.9 60.5L 32.3 60.7L 31.6 60.8L 30.8 60.7L 30.0 60.8L 29.3 61.0L 28.6 61.3L 28.1 61.8L 27.5 62.2L 27.3 63.0L 27.2 63.8L 27.0 64.5L 26.6 65.1L 26.6 65.8L 26.0 66.3L 26.0 67.0L 25.3 67.4L 24.9 68.0L 24.7 68.7L 24.2 69.3L 23.6 69.9L 23.5 70.6L 23.8 71.4L 24.0 72.1" fill="none" stroke="#4be07f" stroke-width=".55" stroke-linejoin="round" stroke-linecap="round" opacity="0.54"/><path d="M 37.4 58.6L 36.7 58.8L 36.0 59.1L 35.4 59.4L 34.7 59.4L 34.0 59.6L 33.3 59.5L 32.5 59.3L 31.8 59.5L 31.0 59.6L 30.3 59.7L 29.6 60.1L 29.1 60.7L 28.7 61.4L 28.3 61.9L 28.0 62.7L 27.6 63.2L 27.2 63.9L 27.0 64.5L 26.2 64.8L 26.0 65.5L 25.1 65.8L 24.5 66.3L 24.0 66.9L 23.8 67.7L 23.5 68.4L 23.7 69.2L 23.8 69.9L 24.1 70.7L 24.4 71.4L 24.4 72.1" fill="none" stroke="#4be07f" stroke-width=".55" stroke-linejoin="round" stroke-linecap="round" opacity="0.51"/><path d="M 37.4 58.7L 36.7 58.6L 36.0 58.6L 35.2 58.5L 34.4 58.1L 33.7 58.3L 32.9 58.1L 32.1 58.3L 31.4 58.7L 30.9 59.3L 30.4 59.9L 29.9 60.6L 29.4 61.1L 29.1 61.8L 28.5 62.2L 27.9 62.6L 27.1 62.8L 26.4 63.2L 25.8 63.7L 25.3 64.2L 24.8 64.8L 24.3 65.4L 24.2 66.2L 24.1 67.0L 24.2 67.8L 24.2 68.6L 24.3 69.3L 24.0 70.0L 23.9 70.7L 24.0 71.4L 23.7 72.1" fill="none" stroke="#4be07f" stroke-width=".55" stroke-linejoin="round" stroke-linecap="round" opacity="0.35"/><path d="M 37.4 57.5L 36.6 57.3L 35.8 57.1L 35.0 57.2L 34.3 57.3L 33.6 57.8L 32.9 58.4L 32.3 58.7L 31.7 59.2L 31.2 59.9L 30.6 60.3L 30.0 60.7L 29.0 60.6L 28.4 61.0L 27.6 61.2L 26.9 61.6L 26.3 62.1L 25.7 62.6L 25.3 63.3L 25.1 64.1L 25.0 64.9L 24.8 65.7L 24.8 66.5L 24.7 67.2L 24.3 67.8L 23.9 68.5L 23.6 69.2L 23.2 69.8L 22.8 70.5L 22.5 71.3L 22.5 72.1" fill="none" stroke="#4be07f" stroke-width=".55" stroke-linejoin="round" stroke-linecap="round" opacity="0.29"/><path d="M 37.4 56.8L 36.6 56.8L 35.8 57.3L 35.1 57.5L 34.4 58.0L 33.7 58.2L 33.1 58.9L 32.3 58.9L 31.5 59.0L 30.7 58.9L 29.9 59.1L 29.2 59.5L 28.5 59.8L 27.8 60.3L 27.1 60.6L 26.7 61.4L 26.4 62.2L 26.2 63.1L 26.0 63.8L 25.6 64.5L 25.3 65.1L 24.7 65.6L 24.4 66.3L 23.7 66.8L 23.3 67.5L 22.8 68.2L 22.5 68.9L 22.0 69.6L 22.1 70.5L 22.2 71.3L 22.5 72.1" fill="none" stroke="#4be07f" stroke-width=".55" stroke-linejoin="round" stroke-linecap="round" opacity="0.22"/><path d="M 37.4 57.5L 36.6 57.7L 35.9 57.7L 35.1 57.6L 34.4 57.9L 33.5 57.6L 32.7 57.6L 31.9 57.8L 31.0 57.8L 30.3 58.2L 29.6 58.5L 28.8 58.9L 28.3 59.6L 28.0 60.4L 27.6 61.2L 27.1 61.8L 26.7 62.4L 26.1 63.0L 25.5 63.4L 25.0 64.0L 24.0 64.4L 23.8 65.1L 22.9 65.6L 22.8 66.5L 22.4 67.2L 22.2 68.0L 22.4 68.9L 22.5 69.7L 22.9 70.6L 22.9 71.3L 22.8 72.1" fill="none" stroke="#4be07f" stroke-width=".55" stroke-linejoin="round" stroke-linecap="round" opacity="0.26"/><path d="M 37.4 57.0L 36.6 57.0L 35.7 56.5L 34.9 56.5L 34.0 56.3L 33.2 56.5L 32.5 57.0L 31.6 57.0L 31.0 57.7L 30.4 58.4L 29.9 59.1L 29.2 59.5L 28.6 60.0L 27.9 60.4L 27.3 60.8L 26.6 61.3L 25.8 61.7L 25.0 62.1L 24.3 62.6L 23.9 63.3L 23.4 64.0L 23.3 64.9L 23.0 65.7L 22.8 66.5L 22.8 67.3L 22.9 68.2L 23.0 69.0L 22.8 69.8L 22.5 70.5L 21.9 71.3L 21.6 72.1" fill="none" stroke="#4be07f" stroke-width=".55" stroke-linejoin="round" stroke-linecap="round" opacity="0.24"/><path d="M 37.4 55.8L 36.5 55.6L 35.7 55.7L 34.9 56.1L 34.0 56.1L 33.3 56.8L 32.6 57.3L 31.8 57.6L 31.1 58.0L 30.4 58.3L 29.6 58.7L 28.8 58.8L 28.0 59.1L 27.3 59.6L 26.5 60.0L 25.8 60.5L 25.2 61.1L 24.7 61.8L 24.2 62.5L 24.0 63.4L 23.9 64.3L 23.9 65.2L 23.5 65.9L 23.2 66.6L 22.9 67.4L 22.4 68.1L 22.0 68.8L 21.4 69.6L 21.0 70.4L 20.7 71.2L 20.8 72.1" fill="none" stroke="#4be07f" stroke-width=".55" stroke-linejoin="round" stroke-linecap="round" opacity="0.14"/><path d="M 37.4 55.7L 36.5 55.7L 35.7 56.2L 34.9 56.5L 34.1 56.6L 33.3 57.0L 32.5 57.0L 31.7 57.4L 30.7 57.1L 30.0 57.5L 29.0 57.6L 28.1 57.8L 27.4 58.3L 26.7 58.9L 26.3 59.7L 25.9 60.6L 25.5 61.4L 25.1 62.1L 24.8 62.9L 24.2 63.5L 23.8 64.2L 23.2 64.8L 22.5 65.4L 22.0 66.2L 21.3 66.8L 20.9 67.7L 20.8 68.5L 20.8 69.5L 21.0 70.4L 21.0 71.2L 21.3 72.1" fill="none" stroke="#4be07f" stroke-width=".55" stroke-linejoin="round" stroke-linecap="round" opacity="0.16"/><path d="M 37.4 56.1L 36.5 55.9L 35.7 56.3L 34.8 55.8L 34.0 56.0L 33.0 55.6L 32.2 56.1L 31.3 56.1L 30.4 56.4L 29.6 56.8L 28.8 57.2L 28.3 58.0L 27.6 58.6L 27.1 59.4L 26.6 60.1L 25.9 60.6L 25.5 61.3L 24.6 61.7L 24.1 62.4L 23.3 62.9L 22.5 63.5L 21.9 64.2L 21.5 65.0L 21.1 65.8L 21.2 66.8L 21.0 67.7L 21.2 68.6L 21.3 69.5L 21.5 70.4L 21.5 71.2L 21.1 72.1" fill="none" stroke="#4be07f" stroke-width=".55" stroke-linejoin="round" stroke-linecap="round" opacity="0.14"/><path d="M 31.1 72.1L 30.3 72.8L 30.3 73.5L 30.4 74.2L 30.1 75.0L 30.7 75.6L 31.2 76.1L 31.5 76.8L 32.3 77.1L 32.8 77.6L 33.5 77.9L 33.7 78.5L 34.1 79.1L 34.1 79.8L 34.2 80.6L 34.2 81.6L 34.6 82.1L 35.0 82.9L 35.6 83.2L 36.3 83.4L 37.0 83.6L 37.9 83.5L 38.5 83.6L 39.4 83.4L 39.9 83.6L 40.6 83.5L 41.2 83.8L 41.7 84.4L 42.4 84.8L 43.0 85.2L 43.7 85.4" fill="none" stroke="#4be07f" stroke-width=".55" stroke-linejoin="round" stroke-linecap="round" opacity="0.13"/><path d="M 29.2 72.1L 29.4 72.8L 29.9 73.5L 30.6 74.2L 31.0 74.8L 31.4 75.4L 31.6 76.0L 32.1 76.5L 32.2 77.2L 32.3 77.9L 32.2 78.7L 32.2 79.5L 32.2 80.4L 32.7 81.0L 32.8 81.9L 33.5 82.3L 34.2 82.6L 35.1 82.7L 36.1 82.5L 36.6 83.0L 37.5 82.9L 38.0 83.2L 38.6 83.5L 39.0 84.2L 39.5 85.0L 40.1 85.3L 40.8 85.8L 41.5 86.0L 42.2 86.7L 42.9 86.3L 43.7 85.7" fill="none" stroke="#4be07f" stroke-width=".55" stroke-linejoin="round" stroke-linecap="round" opacity="0.12"/><path d="M 30.0 72.1L 30.4 72.8L 30.3 73.5L 30.5 74.2L 30.7 74.8L 30.6 75.6L 30.7 76.3L 30.4 77.2L 30.2 78.1L 30.4 78.9L 30.9 79.5L 31.1 80.3L 32.1 80.5L 32.6 81.0L 33.6 81.2L 34.0 81.7L 34.7 82.1L 35.5 82.2L 35.8 83.0L 36.2 83.6L 36.8 84.0L 37.3 84.7L 37.8 85.4L 38.3 86.1L 39.1 86.3L 39.9 86.2L 40.7 86.3L 41.5 86.2L 42.2 85.9L 43.0 85.3L 43.7 85.0" fill="none" stroke="#4be07f" stroke-width=".55" stroke-linejoin="round" stroke-linecap="round" opacity="0.14"/><path d="M 30.3 72.1L 30.0 72.8L 29.3 73.6L 29.3 74.4L 28.6 75.3L 28.7 76.1L 29.2 76.8L 29.0 77.7L 29.7 78.3L 30.3 78.9L 31.4 79.2L 31.9 79.7L 32.6 80.1L 33.3 80.5L 33.5 81.3L 33.9 81.9L 34.2 82.6L 34.6 83.3L 34.8 84.3L 35.4 84.8L 35.9 85.5L 36.7 85.8L 37.5 85.9L 38.4 86.0L 39.3 85.6L 40.1 85.5L 40.8 85.6L 41.6 85.4L 42.2 86.1L 43.0 85.9L 43.7 86.4" fill="none" stroke="#4be07f" stroke-width=".55" stroke-linejoin="round" stroke-linecap="round" opacity="0.19"/><path d="M 28.2 72.1L 27.5 72.9L 27.9 73.7L 27.5 74.6L 27.9 75.4L 28.6 76.1L 29.2 76.8L 30.1 77.3L 30.6 77.9L 31.2 78.4L 31.5 79.1L 31.5 80.0L 31.8 80.7L 31.7 81.8L 32.2 82.4L 32.4 83.4L 32.8 84.2L 33.4 84.8L 34.5 84.8L 35.4 84.9L 36.3 84.9L 37.0 85.2L 37.7 85.4L 38.6 85.2L 39.4 85.4L 40.0 86.0L 40.6 86.7L 41.3 87.0L 42.1 87.7L 42.9 87.7L 43.7 88.4" fill="none" stroke="#4be07f" stroke-width=".55" stroke-linejoin="round" stroke-linecap="round" opacity="0.19"/><path d="M 27.2 72.1L 27.8 72.9L 28.0 73.7L 28.3 74.5L 29.1 75.2L 29.2 76.0L 29.9 76.6L 29.7 77.4L 29.7 78.3L 29.7 79.2L 29.9 80.1L 29.9 81.0L 30.1 82.0L 30.6 82.7L 31.3 83.2L 32.3 83.5L 33.3 83.6L 34.2 83.8L 34.8 84.3L 35.7 84.4L 36.4 84.7L 36.9 85.4L 37.4 86.2L 38.0 87.0L 38.6 87.7L 39.4 87.9L 40.2 88.3L 41.0 88.8L 42.0 88.3L 42.9 88.0L 43.7 87.5" fill="none" stroke="#4be07f" stroke-width=".55" stroke-linejoin="round" stroke-linecap="round" opacity="0.35"/><path d="M 27.7 72.1L 28.4 72.9L 28.7 73.7L 28.3 74.5L 28.4 75.3L 27.9 76.3L 28.0 77.2L 27.6 78.3L 27.7 79.2L 28.3 79.9L 28.6 80.8L 29.6 81.2L 30.4 81.7L 31.5 82.0L 31.9 82.7L 32.9 82.8L 33.3 83.6L 33.9 84.2L 34.3 85.0L 34.8 85.8L 35.5 86.3L 35.8 87.5L 36.6 88.0L 37.4 88.5L 38.4 88.5L 39.3 88.6L 40.3 88.0L 41.2 87.6L 42.1 87.4L 42.9 87.3L 43.7 87.6" fill="none" stroke="#4be07f" stroke-width=".55" stroke-linejoin="round" stroke-linecap="round" opacity="0.27"/><path d="M 27.1 72.1L 27.0 73.0L 26.8 73.9L 26.3 74.8L 26.2 75.8L 26.5 76.7L 26.9 77.5L 27.2 78.4L 28.1 79.0L 28.6 79.8L 29.5 80.3L 30.1 80.9L 30.9 81.4L 31.2 82.2L 31.4 83.1L 31.7 84.1L 32.4 84.6L 32.6 85.8L 33.2 86.5L 33.8 87.3L 34.7 87.6L 35.7 87.8L 36.7 87.7L 37.8 87.5L 38.6 87.7L 39.5 87.7L 40.4 87.7L 41.2 88.1L 42.0 88.2L 42.8 88.9L 43.7 89.5" fill="none" stroke="#4be07f" stroke-width=".55" stroke-linejoin="round" stroke-linecap="round" opacity="0.37"/><path d="M 25.1 72.1L 25.0 73.1L 25.1 74.0L 25.7 74.9L 26.0 75.8L 26.6 76.7L 27.4 77.4L 28.1 78.1L 28.7 78.8L 28.8 79.6L 29.2 80.5L 29.3 81.4L 29.5 82.4L 29.6 83.5L 29.9 84.5L 30.7 85.0L 31.5 85.6L 32.4 86.0L 33.4 86.2L 34.3 86.5L 35.3 86.6L 36.3 86.7L 37.0 87.2L 37.8 87.5L 38.5 88.0L 39.2 88.7L 40.1 89.0L 40.9 89.9L 41.8 90.0L 42.7 90.4L 43.7 90.7" fill="none" stroke="#4be07f" stroke-width=".55" stroke-linejoin="round" stroke-linecap="round" opacity="0.31"/><path d="M 25.1 72.1L 25.7 73.0L 26.2 73.9L 26.7 74.8L 26.8 75.7L 27.2 76.5L 27.4 77.4L 27.3 78.4L 27.1 79.5L 27.5 80.4L 27.4 81.5L 27.5 82.6L 28.6 83.1L 29.0 84.0L 29.9 84.5L 31.1 84.6L 31.7 85.4L 32.8 85.6L 33.6 86.0L 34.3 86.5L 35.1 87.0L 35.7 87.8L 36.2 88.9L 37.0 89.6L 37.8 90.2L 38.7 90.7L 39.8 90.3L 40.8 90.3L 41.8 90.5L 42.7 90.2L 43.7 89.5" fill="none" stroke="#4be07f" stroke-width=".55" stroke-linejoin="round" stroke-linecap="round" opacity="0.35"/><path d="M 26.2 72.1L 26.3 73.0L 25.8 74.0L 25.5 75.0L 25.7 75.9L 25.6 76.9L 25.2 78.1L 25.6 79.0L 25.6 80.1L 26.2 81.0L 27.0 81.7L 28.1 82.2L 28.9 82.8L 29.8 83.3L 30.5 84.0L 31.3 84.4L 31.7 85.4L 32.1 86.4L 32.9 86.9L 33.5 87.8L 33.9 89.0L 34.9 89.3L 35.8 89.9L 36.8 90.0L 37.7 90.4L 38.9 90.1L 39.9 90.0L 40.9 89.9L 41.8 89.9L 42.8 89.9L 43.7 90.0" fill="none" stroke="#4be07f" stroke-width=".55" stroke-linejoin="round" stroke-linecap="round" opacity="0.59"/><path d="M 24.8 72.1L 24.3 73.1L 23.6 74.2L 23.7 75.2L 24.1 76.2L 24.2 77.3L 25.2 78.1L 25.4 79.1L 26.5 79.7L 27.4 80.4L 28.0 81.1L 28.6 81.9L 28.6 83.0L 29.2 83.8L 29.4 84.9L 30.0 85.8L 30.3 86.9L 30.8 87.9L 31.9 88.2L 32.7 89.1L 33.7 89.3L 35.0 89.2L 36.0 89.3L 37.1 89.3L 38.0 89.5L 39.0 89.5L 39.8 90.2L 40.8 90.4L 41.7 91.1L 42.7 91.7L 43.7 91.8" fill="none" stroke="#4be07f" stroke-width=".55" stroke-linejoin="round" stroke-linecap="round" opacity="0.50"/><path d="M 23.0 72.1L 22.9 73.2L 23.7 74.2L 24.0 75.2L 24.8 76.1L 24.9 77.1L 25.4 78.0L 26.1 78.8L 26.1 79.9L 26.4 80.9L 26.6 82.0L 26.7 83.1L 27.2 84.0L 27.7 85.0L 28.4 85.8L 29.0 86.8L 30.1 87.1L 31.3 87.4L 32.0 88.2L 33.3 88.1L 34.2 88.5L 35.2 88.8L 35.9 89.5L 36.7 90.3L 37.7 90.4L 38.6 91.2L 39.4 92.2L 40.4 92.6L 41.5 92.7L 42.6 92.9L 43.7 92.4" fill="none" stroke="#4be07f" stroke-width=".55" stroke-linejoin="round" stroke-linecap="round" opacity="0.36"/><path d="M 23.7 72.1L 23.5 73.1L 24.0 74.1L 24.5 75.1L 24.9 76.1L 24.6 77.2L 24.9 78.2L 24.4 79.5L 24.5 80.6L 24.9 81.6L 25.3 82.7L 26.1 83.5L 26.5 84.6L 27.8 85.0L 28.8 85.5L 29.5 86.3L 30.4 86.8L 31.5 87.1L 32.4 87.6L 33.0 88.6L 33.6 89.5L 34.5 90.2L 35.2 91.2L 36.0 92.0L 37.1 92.5L 38.3 92.4L 39.3 92.9L 40.4 92.7L 41.6 92.3L 42.7 91.9L 43.7 91.4" fill="none" stroke="#4be07f" stroke-width=".55" stroke-linejoin="round" stroke-linecap="round" opacity="0.40"/><path d="M 23.6 72.1L 23.5 73.1L 23.0 74.2L 23.1 75.3L 22.7 76.5L 22.6 77.7L 22.9 78.8L 23.1 80.0L 23.9 80.9L 24.5 81.9L 25.6 82.6L 26.7 83.1L 27.1 84.1L 28.0 84.8L 29.1 85.3L 29.4 86.4L 30.0 87.3L 30.6 88.2L 31.1 89.4L 31.9 90.2L 32.9 90.7L 33.8 91.6L 35.0 91.6L 36.1 92.0L 37.1 92.3L 38.5 91.6L 39.5 91.6L 40.6 91.8L 41.6 91.8L 42.6 92.0L 43.7 92.8" fill="none" stroke="#4be07f" stroke-width=".55" stroke-linejoin="round" stroke-linecap="round" opacity="0.46"/><path d="M 21.6 72.1L 21.3 73.3L 21.1 74.4L 21.7 75.6L 22.1 76.7L 22.2 77.8L 23.0 78.8L 24.2 79.6L 24.4 80.7L 25.1 81.5L 26.1 82.2L 26.2 83.4L 26.8 84.4L 27.0 85.6L 27.6 86.5L 28.1 87.7L 28.7 88.7L 29.6 89.5L 30.5 90.3L 31.6 90.8L 33.0 90.7L 34.1 91.0L 35.3 90.9L 36.4 91.1L 37.2 91.9L 38.3 92.4L 39.3 92.7L 40.3 93.6L 41.4 93.6L 42.5 94.3L 43.7 94.7" fill="none" stroke="#4be07f" stroke-width=".55" stroke-linejoin="round" stroke-linecap="round" opacity="0.40"/><path d="M 20.9 72.1L 21.0 73.3L 21.7 74.4L 22.4 75.5L 22.8 76.5L 23.5 77.5L 23.6 78.6L 23.8 79.7L 23.9 80.9L 24.0 82.1L 24.5 83.2L 24.7 84.4L 25.3 85.4L 25.9 86.5L 26.4 87.6L 27.8 88.0L 28.9 88.5L 29.8 89.3L 31.2 89.3L 32.0 90.1L 33.2 90.2L 34.0 91.1L 34.9 91.9L 35.9 92.5L 36.8 93.3L 37.8 94.1L 39.0 94.3L 40.1 94.7L 41.3 94.8L 42.5 94.7L 43.7 94.5" fill="none" stroke="#4be07f" stroke-width=".55" stroke-linejoin="round" stroke-linecap="round" opacity="0.37"/><path d="M 21.5 72.1L 21.6 73.2L 22.4 74.3L 22.2 75.5L 21.9 76.7L 22.0 77.9L 22.0 79.1L 22.3 80.3L 22.2 81.7L 22.4 82.9L 23.3 83.8L 24.4 84.6L 25.0 85.7L 26.0 86.4L 27.1 87.1L 28.2 87.6L 29.3 88.1L 30.1 88.9L 30.9 89.7L 31.3 91.1L 32.3 91.8L 33.0 93.0L 34.0 93.8L 35.3 93.9L 36.3 94.8L 37.7 94.6L 39.0 94.3L 40.1 94.5L 41.4 93.7L 42.5 94.0L 43.7 93.8" fill="none" stroke="#4be07f" stroke-width=".55" stroke-linejoin="round" stroke-linecap="round" opacity="0.29"/><path d="M 20.8 72.1L 20.5 73.3L 20.5 74.5L 20.3 75.8L 20.3 77.1L 20.6 78.3L 20.6 79.6L 21.4 80.6L 22.3 81.6L 23.2 82.5L 24.2 83.3L 25.0 84.2L 25.4 85.4L 26.5 86.0L 27.1 87.0L 27.3 88.4L 28.1 89.4L 28.9 90.4L 29.6 91.5L 30.6 92.2L 31.5 93.2L 32.8 93.4L 34.2 93.5L 35.3 93.9L 36.7 93.6L 37.8 94.0L 39.1 93.6L 40.2 94.2L 41.3 94.4L 42.5 94.8L 43.7 95.7" fill="none" stroke="#4be07f" stroke-width=".55" stroke-linejoin="round" stroke-linecap="round" opacity="0.17"/><path d="M 19.4 72.1L 19.3 73.4L 19.1 74.7L 19.4 75.9L 20.2 77.1L 20.7 78.2L 21.1 79.4L 22.3 80.3L 22.9 81.4L 23.5 82.4L 23.6 83.7L 24.1 84.8L 24.5 86.0L 24.6 87.5L 25.2 88.7L 26.0 89.7L 27.1 90.5L 28.3 91.0L 29.6 91.4L 30.6 92.2L 32.1 92.2L 33.2 92.7L 34.3 93.1L 35.4 93.7L 36.7 93.8L 37.6 94.7L 38.7 95.4L 39.9 95.9L 41.2 96.3L 42.4 96.5L 43.7 97.1" fill="none" stroke="#4be07f" stroke-width=".55" stroke-linejoin="round" stroke-linecap="round" opacity="0.19"/><path d="M 18.6 72.1L 19.3 73.4L 20.0 74.6L 20.4 75.8L 20.6 77.0L 21.1 78.1L 21.2 79.4L 21.6 80.5L 21.7 81.9L 21.4 83.4L 22.2 84.5L 22.6 85.8L 23.1 87.0L 24.1 87.9L 25.0 88.9L 26.2 89.6L 27.8 89.7L 28.6 90.7L 29.8 91.2L 30.8 91.9L 31.8 92.6L 33.0 93.1L 33.9 94.2L 34.9 95.0L 35.9 96.1L 37.1 96.7L 38.4 96.7L 39.8 96.8L 41.1 97.0L 42.4 96.5L 43.7 96.1" fill="none" stroke="#4be07f" stroke-width=".55" stroke-linejoin="round" stroke-linecap="round" opacity="0.16"/><path d="M 19.6 72.1L 19.9 73.3L 20.0 74.6L 19.7 75.9L 19.5 77.2L 19.6 78.5L 19.4 80.0L 19.7 81.3L 20.1 82.6L 20.5 83.9L 21.8 84.7L 22.6 85.8L 23.8 86.6L 24.6 87.5L 26.0 88.0L 26.9 88.8L 27.7 89.9L 28.2 91.2L 29.2 92.0L 29.9 93.3L 30.8 94.5L 32.1 94.8L 33.1 95.9L 34.5 96.0L 35.8 96.4L 37.2 96.4L 38.6 96.1L 39.9 95.9L 41.2 95.8L 42.4 96.0L 43.7 96.0" fill="none" stroke="#4be07f" stroke-width=".55" stroke-linejoin="round" stroke-linecap="round" opacity="0.12"/><path d="M 43.7 80.4L 44.9 82.0L 46.1 82.2L 47.3 82.1L 48.5 81.9L 49.4 80.9L 50.5 80.5L 51.4 79.6L 52.1 78.4L 52.7 77.2L 53.7 76.8L 54.6 76.3L 55.6 75.8L 57.1 76.0L 58.1 75.4L 59.3 75.1L 60.2 74.4L 61.7 74.0L 62.4 73.0L 62.3 71.6L 63.2 70.7L 62.4 69.0L 62.3 67.8L 62.0 66.5L 62.7 65.6L 63.4 64.7L 63.2 63.6L 64.6 62.8L 65.4 61.7L 66.0 60.6L 66.3 59.5" fill="none" stroke="#4be07f" stroke-width=".55" stroke-linejoin="round" stroke-linecap="round" opacity="0.17"/><path d="M 43.7 83.8L 45.0 83.5L 46.1 82.0L 47.2 81.7L 48.3 81.1L 49.2 79.8L 50.3 79.8L 51.2 79.0L 52.2 78.6L 53.4 78.5L 54.7 78.5L 56.1 78.6L 57.7 78.7L 58.8 78.1L 59.9 77.5L 60.1 75.8L 60.7 74.8L 61.1 73.6L 61.4 72.3L 61.7 71.2L 61.7 69.9L 62.7 69.2L 62.6 67.9L 64.3 67.4L 64.4 66.2L 65.8 65.4L 66.7 64.4L 67.9 63.3L 67.1 61.9L 67.7 60.7L 67.1 59.5" fill="none" stroke="#4be07f" stroke-width=".55" stroke-linejoin="round" stroke-linecap="round" opacity="0.14"/><path d="M 43.7 82.3L 44.8 81.3L 46.0 81.1L 47.1 80.8L 48.3 81.3L 49.6 81.5L 50.8 81.3L 52.1 81.4L 53.5 81.4L 54.8 81.3L 56.4 81.5L 57.0 80.0L 58.0 79.2L 58.9 78.2L 58.8 76.2L 59.4 75.2L 59.9 74.0L 60.8 73.3L 61.5 72.4L 62.3 71.6L 63.3 70.8L 64.9 70.2L 65.7 69.2L 67.0 68.4L 67.6 67.2L 67.7 65.9L 67.3 64.5L 67.0 63.2L 66.3 61.8L 66.0 60.6L 65.5 59.5" fill="none" stroke="#4be07f" stroke-width=".55" stroke-linejoin="round" stroke-linecap="round" opacity="0.14"/><path d="M 43.7 82.9L 44.9 82.7L 46.2 83.3L 47.5 83.4L 48.9 84.0L 50.5 84.8L 51.8 84.4L 53.1 83.9L 53.9 82.5L 55.2 82.0L 55.9 80.6L 56.2 78.7L 57.2 78.0L 57.8 76.9L 59.2 76.7L 60.3 76.1L 61.4 75.4L 62.4 74.6L 64.4 74.5L 65.4 73.5L 66.5 72.6L 66.8 71.2L 66.4 69.6L 66.8 68.3L 66.2 66.8L 66.5 65.6L 66.0 64.2L 66.2 63.0L 67.0 61.9L 66.9 60.7L 67.3 59.5" fill="none" stroke="#4be07f" stroke-width=".55" stroke-linejoin="round" stroke-linecap="round" opacity="0.15"/><path d="M 43.7 85.3L 45.1 85.5L 46.5 86.1L 47.9 85.9L 49.2 85.5L 50.4 84.4L 51.5 83.6L 52.3 81.9L 53.5 81.4L 54.3 80.2L 55.4 79.7L 56.7 79.5L 58.1 79.4L 59.4 78.9L 60.9 78.6L 62.6 78.4L 63.3 77.1L 64.3 76.1L 65.4 75.2L 65.0 73.3L 65.9 72.3L 65.6 70.6L 66.0 69.4L 65.4 67.8L 66.4 66.8L 67.4 65.8L 68.2 64.7L 69.2 63.5L 69.4 62.2L 70.8 60.9L 70.5 59.5" fill="none" stroke="#4be07f" stroke-width=".55" stroke-linejoin="round" stroke-linecap="round" opacity="0.35"/><path d="M 43.7 86.9L 45.1 86.3L 46.5 86.0L 47.7 84.6L 48.9 83.8L 50.2 83.6L 51.4 83.2L 52.8 83.2L 53.9 82.5L 55.7 83.0L 56.9 82.3L 58.6 82.4L 60.2 82.1L 61.2 81.1L 62.4 80.2L 62.6 78.3L 63.4 77.2L 63.9 75.8L 63.9 74.2L 64.0 72.7L 64.9 71.7L 65.8 70.7L 66.9 69.8L 67.8 68.7L 69.5 67.9L 70.1 66.5L 70.9 65.2L 70.9 63.8L 71.0 62.3L 71.0 60.9L 70.5 59.5" fill="none" stroke="#4be07f" stroke-width=".55" stroke-linejoin="round" stroke-linecap="round" opacity="0.26"/><path d="M 43.7 85.4L 45.1 85.4L 46.4 85.4L 47.8 85.5L 49.1 85.0L 50.8 85.9L 52.3 86.0L 53.9 85.9L 55.3 85.6L 56.7 85.0L 58.0 84.3L 59.3 83.4L 60.0 81.9L 60.7 80.5L 61.2 78.9L 62.0 77.7L 62.8 76.7L 64.1 76.0L 65.1 75.1L 66.6 74.3L 67.3 73.1L 68.8 72.3L 69.9 71.1L 70.2 69.6L 70.5 68.2L 70.4 66.6L 70.5 65.2L 70.4 63.7L 69.5 62.2L 69.0 60.8L 69.1 59.5" fill="none" stroke="#4be07f" stroke-width=".55" stroke-linejoin="round" stroke-linecap="round" opacity="0.25"/><path d="M 43.7 87.2L 45.1 87.0L 46.7 88.3L 48.2 88.0L 49.9 88.7L 51.4 88.2L 52.7 87.3L 54.2 86.8L 55.1 85.0L 56.5 84.7L 57.3 83.1L 58.3 81.9L 59.4 81.1L 60.5 80.3L 61.7 79.5L 63.0 78.8L 64.6 78.3L 66.2 77.7L 67.7 76.9L 68.7 75.7L 69.0 74.1L 69.4 72.6L 69.5 71.0L 69.5 69.4L 69.1 67.7L 69.7 66.4L 70.1 65.1L 70.6 63.7L 71.2 62.4L 71.7 60.9L 72.7 59.5" fill="none" stroke="#4be07f" stroke-width=".55" stroke-linejoin="round" stroke-linecap="round" opacity="0.47"/><path d="M 43.7 90.2L 45.3 90.3L 46.8 89.4L 48.5 89.7L 50.0 89.0L 51.2 87.7L 52.3 85.9L 53.8 85.8L 54.9 84.7L 56.4 84.5L 58.0 84.2L 59.4 83.7L 60.7 82.9L 62.8 83.0L 64.0 82.1L 65.5 81.2L 66.8 80.2L 67.5 78.7L 67.4 76.7L 67.6 75.0L 68.2 73.6L 68.4 72.1L 68.9 70.7L 70.0 69.5L 70.6 68.2L 71.2 66.8L 72.7 65.6L 73.8 64.2L 74.1 62.7L 74.8 61.1L 74.0 59.5" fill="none" stroke="#4be07f" stroke-width=".55" stroke-linejoin="round" stroke-linecap="round" opacity="0.44"/><path d="M 43.7 89.8L 45.2 89.0L 46.8 88.6L 48.3 88.3L 49.6 87.1L 51.2 87.5L 52.6 86.7L 54.4 87.3L 55.9 87.0L 57.5 86.7L 59.4 86.6L 60.7 85.7L 62.1 84.7L 63.2 83.5L 64.2 82.2L 64.9 80.6L 65.2 78.8L 66.5 77.9L 67.2 76.5L 67.3 74.8L 68.9 74.0L 70.1 72.9L 70.9 71.6L 72.4 70.5L 73.5 69.2L 74.4 67.7L 74.9 66.1L 74.9 64.4L 74.7 62.7L 74.0 61.0L 72.8 59.5" fill="none" stroke="#4be07f" stroke-width=".55" stroke-linejoin="round" stroke-linecap="round" opacity="0.47"/><path d="M 43.7 88.7L 45.2 88.5L 46.8 89.2L 48.5 89.8L 50.0 89.3L 51.8 89.6L 53.6 89.8L 55.4 90.0L 57.1 89.6L 58.6 88.7L 59.5 86.9L 60.7 85.7L 61.8 84.4L 62.3 82.4L 63.7 81.7L 64.7 80.4L 65.5 79.1L 67.2 78.5L 69.1 77.9L 70.2 76.7L 71.4 75.4L 72.9 74.3L 73.2 72.6L 73.4 70.9L 73.6 69.2L 74.0 67.6L 73.5 65.8L 73.1 64.1L 73.6 62.6L 72.9 61.0L 73.6 59.5" fill="none" stroke="#4be07f" stroke-width=".55" stroke-linejoin="round" stroke-linecap="round" opacity="0.41"/><path d="M 43.7 91.1L 45.4 91.7L 47.1 92.2L 49.0 93.0L 50.7 92.6L 52.3 91.7L 53.8 90.5L 55.1 89.2L 56.7 88.7L 57.9 87.4L 59.0 86.0L 60.3 85.1L 61.5 83.9L 63.2 83.5L 64.8 82.9L 66.9 82.7L 68.7 82.0L 69.4 80.3L 70.6 79.0L 71.6 77.6L 71.8 75.7L 72.2 74.0L 72.5 72.3L 72.4 70.5L 72.5 68.8L 72.9 67.3L 73.5 65.8L 74.3 64.3L 74.9 62.7L 76.2 61.2L 77.0 59.5" fill="none" stroke="#4be07f" stroke-width=".55" stroke-linejoin="round" stroke-linecap="round" opacity="0.36"/><path d="M 43.7 94.6L 45.5 94.1L 47.2 92.7L 48.9 92.1L 50.5 91.7L 51.9 90.1L 53.4 89.3L 55.1 89.2L 56.6 88.5L 58.3 88.1L 59.8 87.4L 62.0 87.6L 63.3 86.5L 65.3 86.1L 66.6 84.9L 68.2 84.0L 69.0 82.3L 70.0 80.8L 70.2 78.7L 70.9 77.1L 70.8 75.1L 71.8 73.8L 72.6 72.3L 73.9 71.0L 74.6 69.5L 76.3 68.2L 77.2 66.6L 77.7 64.8L 78.0 63.1L 78.1 61.3L 77.2 59.5" fill="none" stroke="#4be07f" stroke-width=".55" stroke-linejoin="round" stroke-linecap="round" opacity="0.30"/><path d="M 43.7 93.6L 45.4 92.4L 47.1 92.1L 48.8 91.8L 50.5 91.6L 52.2 91.2L 53.9 90.7L 55.7 90.8L 57.7 91.0L 59.8 91.2L 61.2 89.7L 62.7 88.8L 64.5 88.1L 65.6 86.5L 66.5 84.8L 66.8 82.6L 68.2 81.5L 68.4 79.5L 69.6 78.3L 71.6 77.6L 73.1 76.5L 73.7 74.8L 75.4 73.6L 76.7 72.1L 77.7 70.5L 77.9 68.6L 77.8 66.7L 78.0 64.9L 76.9 63.0L 77.2 61.2L 76.1 59.5" fill="none" stroke="#4be07f" stroke-width=".55" stroke-linejoin="round" stroke-linecap="round" opacity="0.37"/><path d="M 43.7 92.6L 45.4 92.8L 47.3 93.9L 49.1 93.8L 51.1 94.5L 53.0 94.3L 55.1 94.6L 56.9 93.9L 58.2 92.0L 59.7 90.8L 61.2 89.7L 62.4 88.3L 63.7 87.1L 64.4 85.0L 66.4 84.7L 67.9 83.7L 69.0 82.3L 70.8 81.4L 72.9 80.7L 73.7 79.0L 75.4 77.8L 76.1 76.0L 77.0 74.3L 77.2 72.3L 76.5 70.1L 76.8 68.3L 76.8 66.5L 76.8 64.7L 76.9 62.9L 77.6 61.2L 78.1 59.5" fill="none" stroke="#4be07f" stroke-width=".55" stroke-linejoin="round" stroke-linecap="round" opacity="0.43"/><path d="M 43.7 96.0L 45.6 96.8L 47.6 96.4L 49.5 96.0L 51.5 96.1L 53.2 94.8L 54.9 94.0L 56.1 91.9L 57.9 91.4L 59.1 89.7L 60.8 89.1L 62.3 88.2L 64.4 87.9L 66.4 87.5L 68.1 86.6L 69.7 85.5L 71.5 84.5L 72.6 82.9L 73.4 81.1L 74.8 79.7L 74.4 77.2L 75.0 75.4L 75.6 73.7L 76.0 71.9L 76.2 70.0L 76.6 68.3L 78.1 66.8L 78.9 65.0L 79.6 63.2L 80.8 61.4L 81.2 59.5" fill="none" stroke="#4be07f" stroke-width=".55" stroke-linejoin="round" stroke-linecap="round" opacity="0.31"/><path d="M 43.7 97.5L 45.6 96.8L 47.5 96.1L 49.4 95.4L 51.2 94.8L 52.7 93.1L 54.5 92.8L 56.3 92.3L 58.5 92.7L 60.3 92.1L 62.5 92.0L 64.6 91.7L 65.9 90.0L 67.6 89.0L 69.0 87.6L 70.5 86.2L 71.5 84.5L 71.6 82.1L 72.2 80.2L 73.5 78.8L 73.9 76.9L 75.1 75.5L 76.3 74.0L 78.3 72.7L 79.5 71.1L 79.9 69.2L 81.5 67.5L 82.1 65.5L 81.9 63.5L 81.0 61.4L 80.8 59.5" fill="none" stroke="#4be07f" stroke-width=".55" stroke-linejoin="round" stroke-linecap="round" opacity="0.19"/><path d="M 43.7 96.3L 45.6 95.8L 47.5 95.6L 49.3 94.8L 51.3 95.2L 53.3 95.2L 55.6 96.0L 57.5 95.3L 59.7 95.4L 61.6 94.7L 63.1 93.0L 64.8 92.0L 66.3 90.6L 67.0 88.2L 68.3 86.7L 69.4 85.2L 70.6 83.7L 71.9 82.3L 73.1 80.9L 75.1 79.9L 76.9 78.6L 78.6 77.2L 79.8 75.5L 80.4 73.5L 80.7 71.5L 81.2 69.5L 81.0 67.4L 80.5 65.3L 80.1 63.3L 79.8 61.4L 80.4 59.5" fill="none" stroke="#4be07f" stroke-width=".55" stroke-linejoin="round" stroke-linecap="round" opacity="0.30"/><path d="M 43.7 97.6L 45.7 97.5L 47.8 98.6L 49.9 98.7L 52.1 99.2L 54.2 98.5L 56.1 97.8L 58.1 96.9L 59.9 95.8L 61.4 94.1L 62.8 92.6L 63.9 90.6L 65.2 89.1L 67.3 88.6L 69.1 87.7L 70.5 86.3L 72.8 85.7L 74.1 84.1L 75.7 82.7L 78.0 81.7L 78.1 79.3L 78.9 77.4L 79.9 75.6L 79.2 73.1L 79.5 71.1L 80.0 69.2L 80.0 67.2L 80.8 65.3L 81.2 63.4L 81.4 61.4L 82.9 59.5" fill="none" stroke="#4be07f" stroke-width=".55" stroke-linejoin="round" stroke-linecap="round" opacity="0.30"/><path d="M 43.7 100.7L 45.8 100.3L 48.0 100.2L 50.1 100.2L 52.2 99.4L 54.0 97.9L 55.7 96.4L 57.6 95.8L 59.3 94.5L 61.3 93.9L 63.2 93.2L 65.1 92.4L 67.0 91.5L 69.2 90.9L 70.8 89.5L 72.6 88.3L 74.7 87.4L 75.1 84.9L 76.4 83.2L 77.0 81.1L 77.8 79.2L 78.4 77.1L 78.6 75.0L 79.6 73.3L 79.9 71.2L 81.3 69.5L 83.0 67.8L 84.0 65.8L 84.7 63.8L 84.5 61.6L 85.1 59.5" fill="none" stroke="#4be07f" stroke-width=".55" stroke-linejoin="round" stroke-linecap="round" opacity="0.16"/><path d="M 43.7 101.0L 45.8 99.9L 47.8 98.9L 49.9 98.6L 51.9 98.2L 53.8 97.2L 55.9 97.1L 57.9 96.4L 60.4 96.9L 62.5 96.4L 64.6 95.6L 66.5 94.6L 68.7 93.8L 69.8 91.7L 71.8 90.7L 72.9 88.7L 73.6 86.4L 74.4 84.4L 75.7 82.7L 76.1 80.5L 77.5 79.0L 79.7 77.8L 81.1 76.1L 82.2 74.2L 83.7 72.4L 84.0 70.3L 85.0 68.2L 85.4 66.1L 84.6 63.8L 84.1 61.6L 83.8 59.5" fill="none" stroke="#4be07f" stroke-width=".55" stroke-linejoin="round" stroke-linecap="round" opacity="0.15"/><path d="M 43.7 100.1L 45.8 99.7L 47.9 99.4L 50.0 99.1L 52.2 99.5L 54.7 100.5L 56.8 99.9L 59.2 99.9L 61.1 98.5L 63.1 97.6L 65.0 96.4L 66.4 94.4L 68.1 93.0L 69.3 91.1L 70.8 89.6L 71.9 87.7L 74.0 86.7L 75.1 84.9L 77.0 83.7L 78.7 82.2L 80.8 80.9L 82.3 79.1L 82.9 76.9L 84.1 75.0L 84.4 72.7L 84.5 70.4L 83.6 67.9L 83.3 65.7L 84.1 63.7L 84.0 61.6L 83.9 59.5" fill="none" stroke="#4be07f" stroke-width=".55" stroke-linejoin="round" stroke-linecap="round" opacity="0.13"/><path d="M 59.8 59.5L 60.8 57.6L 60.2 55.7L 60.9 53.7L 60.3 51.9L 59.8 50.1L 59.2 48.3L 57.6 46.9L 54.4 46.2L 53.7 44.7L 52.3 43.6L 51.2 42.3L 50.2 41.0L 50.8 38.4L 50.5 36.3L 49.7 34.5L 48.8 32.7L 48.3 30.4L 46.5 29.6L 44.9 28.5L 42.7 28.4L 40.4 28.7L 38.5 28.5L 36.2 29.7L 34.6 29.1L 33.2 28.0L 31.4 28.2L 29.9 27.1L 28.4 24.6L 26.6 23.6L 24.8 22.8" fill="none" stroke="#4be07f" stroke-width=".55" stroke-linejoin="round" stroke-linecap="round" opacity="0.11"/><path d="M 62.5 59.5L 63.5 57.4L 61.9 55.6L 60.5 53.8L 59.5 52.1L 58.2 50.5L 57.0 49.0L 55.2 47.8L 56.0 45.6L 56.2 43.4L 54.9 42.1L 55.1 39.7L 54.7 37.7L 53.9 35.8L 53.3 33.8L 51.1 33.1L 50.0 31.5L 47.0 32.0L 44.8 31.9L 43.3 30.9L 41.3 30.9L 39.9 29.7L 38.3 29.0L 37.4 26.5L 35.6 26.1L 34.3 24.0L 32.6 22.7L 30.7 21.9L 28.8 21.3L 26.8 21.2L 24.8 22.7" fill="none" stroke="#4be07f" stroke-width=".55" stroke-linejoin="round" stroke-linecap="round" opacity="0.17"/><path d="M 62.4 59.5L 60.7 57.6L 60.0 55.8L 58.7 54.1L 58.4 52.3L 58.8 50.3L 60.2 47.9L 59.6 46.1L 60.5 43.5L 60.5 41.3L 59.0 39.7L 58.6 37.5L 56.2 36.6L 53.9 35.9L 51.7 35.2L 49.7 34.6L 48.0 33.7L 46.4 32.7L 45.0 31.6L 44.4 29.3L 42.8 28.1L 42.2 25.2L 40.4 24.3L 39.2 21.8L 36.9 22.2L 34.9 21.6L 32.8 21.9L 30.8 21.4L 28.6 23.4L 26.6 23.6L 24.8 24.9" fill="none" stroke="#4be07f" stroke-width=".55" stroke-linejoin="round" stroke-linecap="round" opacity="0.24"/><path d="M 61.1 59.5L 61.5 57.5L 62.6 55.5L 64.1 53.2L 64.9 50.9L 64.4 48.8L 64.2 46.7L 63.3 44.7L 61.7 43.0L 59.9 41.5L 58.1 40.2L 56.8 38.7L 54.0 38.3L 52.4 37.1L 52.6 34.4L 51.7 32.5L 50.4 31.0L 50.0 28.3L 48.5 26.8L 46.8 25.5L 45.1 24.3L 43.8 22.2L 41.3 22.3L 39.0 22.3L 36.4 23.6L 34.6 22.9L 32.4 23.6L 30.3 24.2L 28.5 23.5L 26.7 22.9L 24.8 21.8" fill="none" stroke="#4be07f" stroke-width=".55" stroke-linejoin="round" stroke-linecap="round" opacity="0.23"/><path d="M 67.3 59.5L 67.0 57.2L 68.4 54.9L 66.6 52.8L 67.0 50.5L 64.4 48.8L 63.6 46.8L 61.8 45.3L 60.2 43.7L 59.3 41.9L 57.4 40.6L 57.8 38.0L 57.1 36.0L 55.7 34.4L 55.6 31.7L 54.3 30.0L 53.3 27.8L 51.2 26.8L 49.5 25.4L 47.7 24.2L 44.8 24.7L 42.5 24.6L 40.4 24.3L 38.5 23.7L 36.7 22.6L 34.6 22.8L 33.2 19.9L 31.1 19.8L 29.2 17.5L 27.0 16.7L 24.8 17.2" fill="none" stroke="#4be07f" stroke-width=".55" stroke-linejoin="round" stroke-linecap="round" opacity="0.17"/><path d="M 68.2 59.5L 67.8 57.2L 66.1 55.1L 65.6 53.0L 63.9 51.1L 62.5 49.4L 62.7 47.1L 61.8 45.2L 61.5 43.1L 61.9 40.5L 62.2 37.9L 61.1 35.8L 61.3 32.9L 60.0 30.9L 57.5 30.0L 55.0 29.3L 52.7 28.5L 50.4 27.8L 47.8 27.8L 46.6 25.9L 44.5 25.3L 42.9 23.9L 41.3 22.2L 40.1 19.5L 38.2 18.2L 36.0 17.4L 34.1 15.8L 31.8 15.1L 29.4 15.5L 27.1 15.9L 24.8 17.4" fill="none" stroke="#4be07f" stroke-width=".55" stroke-linejoin="round" stroke-linecap="round" opacity="0.27"/><path d="M 66.5 59.5L 65.0 57.4L 65.7 55.2L 66.5 52.9L 66.2 50.7L 67.1 48.1L 66.8 45.8L 67.6 43.0L 66.8 40.7L 66.5 38.2L 64.3 36.6L 63.1 34.6L 60.9 33.2L 58.0 32.6L 56.3 31.1L 53.3 30.9L 51.9 29.3L 50.6 27.6L 49.5 25.4L 48.3 23.3L 47.0 21.0L 45.5 18.8L 43.5 17.3L 41.5 16.0L 39.0 15.6L 36.6 15.4L 34.0 16.2L 31.4 17.4L 29.1 18.4L 26.9 19.1L 24.8 18.8" fill="none" stroke="#4be07f" stroke-width=".55" stroke-linejoin="round" stroke-linecap="round" opacity="0.30"/><path d="M 68.1 59.5L 69.8 57.1L 69.8 54.7L 70.0 52.3L 70.3 49.8L 71.1 47.0L 69.3 45.0L 68.6 42.6L 66.5 40.9L 65.0 39.0L 62.0 37.9L 61.4 35.7L 59.8 34.0L 57.4 33.0L 57.7 29.8L 55.8 28.4L 54.8 26.1L 54.1 23.2L 52.9 20.7L 50.5 19.8L 48.8 17.8L 46.3 17.2L 43.1 18.2L 40.5 18.4L 38.4 17.6L 36.0 17.4L 33.6 18.0L 31.4 17.6L 29.4 15.8L 27.1 14.1L 24.8 14.0" fill="none" stroke="#4be07f" stroke-width=".55" stroke-linejoin="round" stroke-linecap="round" opacity="0.47"/><path d="M 74.2 59.5L 74.7 56.8L 74.2 54.3L 71.7 52.0L 70.6 49.7L 69.8 47.4L 67.0 45.7L 65.9 43.7L 65.6 41.3L 64.8 39.1L 63.2 37.3L 63.2 34.5L 62.3 32.2L 62.5 28.9L 60.4 27.4L 59.4 24.9L 57.5 23.1L 54.8 22.4L 53.0 20.6L 49.6 21.2L 47.1 20.8L 44.8 20.1L 42.8 18.9L 40.9 17.4L 38.8 16.3L 36.7 14.9L 34.6 13.3L 32.3 12.2L 29.9 11.1L 27.4 9.6L 24.8 9.7" fill="none" stroke="#4be07f" stroke-width=".55" stroke-linejoin="round" stroke-linecap="round" opacity="0.54"/><path d="M 73.7 59.5L 72.1 57.0L 71.6 54.5L 69.8 52.3L 68.7 50.1L 69.3 47.5L 69.4 45.0L 69.6 42.3L 68.2 40.1L 69.2 36.8L 69.0 34.0L 67.1 32.0L 65.9 29.6L 63.0 28.5L 61.1 26.7L 59.3 24.9L 55.8 25.0L 53.7 23.8L 51.9 22.1L 49.3 21.7L 47.9 19.5L 46.1 17.7L 44.1 16.0L 42.3 13.7L 40.2 11.9L 37.9 10.3L 35.3 10.2L 32.6 9.8L 29.9 10.2L 27.3 11.3L 24.8 12.1" fill="none" stroke="#4be07f" stroke-width=".55" stroke-linejoin="round" stroke-linecap="round" opacity="0.54"/><path d="M 72.5 59.5L 72.0 57.0L 72.4 54.5L 73.0 51.8L 72.5 49.3L 74.4 46.2L 73.8 43.5L 72.6 41.1L 72.5 38.2L 71.2 35.8L 69.5 33.6L 66.0 32.7L 64.1 30.9L 61.6 29.6L 60.3 27.5L 57.7 26.5L 56.8 23.9L 55.6 21.3L 54.1 19.0L 52.6 16.6L 50.8 14.3L 48.8 12.4L 46.3 11.2L 43.5 10.6L 40.3 11.6L 37.7 11.2L 34.7 12.7L 32.3 12.0L 29.6 13.1L 27.3 12.1L 24.8 12.2" fill="none" stroke="#4be07f" stroke-width=".55" stroke-linejoin="round" stroke-linecap="round" opacity="0.50"/><path d="M 75.4 59.5L 76.5 56.8L 78.1 53.9L 77.6 51.1L 77.5 48.3L 75.8 45.8L 75.3 43.0L 73.5 40.8L 71.6 38.6L 69.0 36.9L 67.1 35.0L 65.6 33.0L 63.9 31.0L 63.2 28.3L 62.6 25.4L 61.6 22.6L 60.5 19.8L 58.4 18.0L 56.6 15.6L 54.0 14.4L 50.8 14.4L 48.1 13.6L 45.3 13.3L 42.2 13.9L 39.9 12.9L 37.6 11.7L 34.9 11.7L 32.7 9.6L 30.1 8.7L 27.5 6.6L 24.8 6.1" fill="none" stroke="#4be07f" stroke-width=".55" stroke-linejoin="round" stroke-linecap="round" opacity="0.55"/><path d="M 80.7 59.5L 79.9 56.6L 79.0 53.8L 76.9 51.2L 75.9 48.6L 73.7 46.4L 73.4 43.7L 71.9 41.4L 70.5 39.1L 70.4 36.2L 70.3 33.2L 69.4 30.5L 68.3 27.8L 67.8 24.6L 65.6 22.7L 64.2 20.0L 61.2 19.0L 57.9 18.5L 55.2 17.5L 52.9 16.1L 50.3 15.3L 47.3 15.3L 45.7 12.5L 43.1 11.8L 40.8 10.1L 38.8 7.1L 36.0 6.6L 33.4 4.9L 30.5 4.5L 27.6 4.5L 24.8 5.9" fill="none" stroke="#4be07f" stroke-width=".55" stroke-linejoin="round" stroke-linecap="round" opacity="0.34"/><path d="M 78.7 59.5L 76.8 56.7L 77.1 54.0L 75.3 51.5L 76.4 48.5L 74.7 46.1L 75.1 43.1L 76.5 39.6L 75.9 36.7L 75.1 33.8L 73.5 31.3L 71.7 29.0L 70.6 26.2L 68.3 24.2L 64.3 23.8L 61.9 22.3L 60.1 20.2L 57.6 18.9L 55.3 17.4L 53.5 15.3L 51.4 13.4L 49.7 10.5L 47.4 8.6L 44.8 7.4L 42.5 4.9L 39.4 4.8L 36.5 4.5L 33.5 4.6L 30.3 6.6L 27.6 6.2L 24.8 6.5" fill="none" stroke="#4be07f" stroke-width=".55" stroke-linejoin="round" stroke-linecap="round" opacity="0.51"/><path d="M 77.7 59.5L 77.8 56.7L 79.4 53.7L 80.5 50.6L 80.1 47.7L 81.2 44.3L 79.4 41.7L 79.1 38.6L 78.2 35.7L 76.2 33.3L 73.6 31.3L 70.4 29.8L 67.6 28.3L 65.8 26.3L 64.8 23.4L 63.0 21.2L 61.1 19.1L 59.7 16.4L 58.7 12.8L 56.7 10.2L 53.7 9.4L 51.4 7.2L 48.3 6.5L 45.4 5.7L 41.9 6.8L 39.0 6.3L 35.9 7.2L 33.1 6.6L 30.4 6.1L 27.6 6.0L 24.8 4.8" fill="none" stroke="#4be07f" stroke-width=".55" stroke-linejoin="round" stroke-linecap="round" opacity="0.44"/><path d="M 82.9 59.5L 83.1 56.4L 84.7 53.2L 84.7 50.0L 83.3 47.0L 82.2 44.1L 79.4 41.7L 77.8 39.1L 75.6 36.8L 74.1 34.3L 73.0 31.6L 71.6 29.1L 70.5 26.2L 69.0 23.6L 68.4 20.2L 66.1 18.1L 64.9 14.9L 62.8 12.5L 59.7 11.4L 56.6 10.5L 53.3 10.0L 50.7 8.5L 47.5 8.5L 44.4 8.3L 41.9 6.7L 39.1 6.2L 36.6 3.9L 33.8 2.2L 30.9 1.4L 27.8 1.1L 24.8 -0.2" fill="none" stroke="#4be07f" stroke-width=".55" stroke-linejoin="round" stroke-linecap="round" opacity="0.28"/><path d="M 86.0 59.5L 85.6 56.3L 84.6 53.2L 81.9 50.4L 81.3 47.4L 78.9 45.0L 78.2 42.1L 78.0 39.0L 77.3 36.1L 77.0 32.9L 75.8 30.0L 75.0 26.9L 74.9 23.1L 72.7 20.7L 70.3 18.5L 67.6 16.6L 64.1 15.8L 61.3 14.4L 58.7 12.8L 55.1 12.7L 53.3 10.0L 50.5 8.9L 47.9 7.5L 45.6 5.1L 43.4 2.2L 40.2 1.7L 37.6 -0.9L 34.3 -0.6L 31.1 -0.7L 27.9 -0.1L 24.8 0.3" fill="none" stroke="#4be07f" stroke-width=".55" stroke-linejoin="round" stroke-linecap="round" opacity="0.24"/><path d="M 84.3 59.5L 82.0 56.5L 82.9 53.4L 81.5 50.5L 81.7 47.4L 81.8 44.2L 82.9 40.6L 82.8 37.2L 82.4 33.8L 81.1 30.8L 78.6 28.4L 76.9 25.6L 74.3 23.5L 71.8 21.4L 68.7 19.9L 66.4 17.9L 63.0 17.0L 61.1 14.6L 59.4 11.7L 57.5 9.1L 55.0 7.1L 52.6 4.8L 50.5 1.8L 47.4 0.6L 44.1 0.0L 40.6 0.2L 37.6 -0.9L 34.1 0.7L 31.0 0.2L 27.8 1.1L 24.8 2.3" fill="none" stroke="#4be07f" stroke-width=".55" stroke-linejoin="round" stroke-linecap="round" opacity="0.29"/><path d="M 84.4 59.5L 85.0 56.3L 86.5 53.0L 87.9 49.5L 87.0 46.2L 86.6 42.9L 85.6 39.7L 84.4 36.6L 81.8 34.1L 79.5 31.6L 77.7 28.9L 74.7 27.1L 73.5 24.1L 70.6 22.4L 70.0 18.7L 68.3 15.9L 66.0 13.6L 64.3 10.6L 62.2 8.0L 60.2 4.9L 56.9 3.8L 53.7 2.6L 50.5 1.6L 46.7 2.4L 43.3 2.4L 40.3 1.6L 37.1 1.3L 34.0 1.4L 31.0 0.1L 27.9 -0.8L 24.8 -2.7" fill="none" stroke="#4be07f" stroke-width=".55" stroke-linejoin="round" stroke-linecap="round" opacity="0.28"/><path d="M 90.1 59.5L 90.1 56.0L 89.8 52.6L 90.3 49.1L 88.3 45.9L 85.7 43.1L 84.1 40.2L 81.7 37.6L 80.9 34.5L 79.1 31.8L 77.9 28.8L 77.8 25.0L 76.2 22.1L 75.5 18.4L 74.1 15.1L 71.5 12.7L 69.4 9.8L 65.8 8.8L 63.3 6.5L 59.7 5.7L 55.7 5.8L 52.5 4.9L 49.8 3.3L 46.5 2.8L 43.6 1.6L 40.8 -0.3L 37.9 -2.5L 35.0 -4.8L 31.5 -5.0L 28.2 -5.8L 24.8 -6.6" fill="none" stroke="#4be07f" stroke-width=".55" stroke-linejoin="round" stroke-linecap="round" opacity="0.15"/><path d="M 90.7 59.5L 90.6 56.0L 88.4 52.8L 86.6 49.7L 86.1 46.4L 85.9 43.1L 84.1 40.2L 84.8 36.4L 83.6 33.3L 84.1 29.2L 83.5 25.6L 80.9 23.0L 79.5 19.7L 77.3 16.9L 74.5 14.7L 70.9 13.3L 67.8 11.6L 64.7 10.1L 61.4 9.1L 59.3 6.3L 56.4 4.6L 54.0 2.0L 50.9 0.8L 48.5 -2.4L 45.3 -3.8L 42.1 -5.2L 38.8 -6.7L 35.3 -6.8L 31.6 -5.7L 28.2 -5.6L 24.8 -4.0" fill="none" stroke="#4be07f" stroke-width=".55" stroke-linejoin="round" stroke-linecap="round" opacity="0.13"/><path d="M 88.8 59.5L 88.5 56.1L 89.5 52.7L 89.7 49.2L 90.3 45.5L 90.1 42.0L 89.4 38.5L 88.6 35.0L 87.5 31.5L 86.8 27.9L 83.7 25.4L 81.3 22.7L 78.2 20.6L 75.8 18.1L 72.8 16.2L 70.5 13.7L 67.4 12.2L 65.5 9.1L 63.3 6.4L 61.6 2.7L 58.5 1.0L 56.1 -2.1L 53.1 -4.1L 49.7 -5.6L 45.8 -5.2L 42.1 -5.1L 38.4 -4.9L 35.0 -5.3L 31.5 -5.0L 28.1 -4.0L 24.8 -5.8" fill="none" stroke="#4be07f" stroke-width=".55" stroke-linejoin="round" stroke-linecap="round" opacity="0.08"/><circle cx="37.4" cy="65.8" r="1" fill="#c8ffdb"/><circle cx="37.4" cy="65.8" r="1" fill="#c8ffdb"/><circle cx="37.4" cy="72.1" r="1" fill="#c8ffdb"/><circle cx="43.7" cy="72.1" r="1" fill="#c8ffdb"/><circle cx="43.7" cy="59.5" r="1" fill="#c8ffdb"/><circle cx="24.8" cy="59.5" r="1" fill="#c8ffdb"/></g></svg>