<svg version="1.1" viewBox="0.0 0.0 96.0 26.879265091863516" fill="none" stroke="none" stroke-linecap="square" stroke-miterlimit="10" xmlns:xlink="http://www.w3.org/1999/xlink" xmlns="http://www.w3.org/2000/svg"><clipPath id="p.0"><path d="m0 0l96.0 0l0 26.879265l-96.0 0l0 -26.879265z" clip-rule="nonzero"/></clipPath><g clip-path="url(#p.0)"><path fill="#000000" fill-opacity="0.0" d="m0 0l96.0 0l0 26.879265l-96.0 0z" fill-rule="evenodd"/><path fill="#343a40" d="m-0.007874016 0l96.0 0l0 26.866142l-96.0 0z" fill-rule="evenodd"/><path fill="#000000" fill-opacity="0.0" d="m2.5170603 0.7742782l65.35433 0l0 21.007874l-65.35433 0z" fill-rule="evenodd"/><path fill="#28a745" d="m5.0014353 10.508028l0 5.171875l0.625 0q0.625 0 0.890625 0.25q0.265625 0.234375 0.265625 0.625q0 0.375 -0.265625 0.625q-0.265625 0.234375 -0.890625 0.234375l-2.265625 0q-0.625 0 -0.890625 -0.234375q-0.28125 -0.25 -0.28125 -0.640625q0 -0.375 0.265625 -0.609375q0.265625 -0.25 0.8125 -0.25l0 -6.78125q-0.453125 -0.046875 -0.6875 -0.28125q-0.234375 -0.234375 -0.234375 -0.59375q0 -0.39062548 0.265625 -0.6250005q0.265625 -0.25 0.890625 -0.25l1.90625 0.015625l2.359375 5.2187505l2.328125 -5.2343755l1.921875 0.015625q0.625 0 0.890625 0.234375q0.265625 0.234375 0.265625 0.6250005q0 0.359375 -0.25 0.59375q-0.234375 0.234375 -0.671875 0.28125l0 6.78125q0.546875 0 0.8125 0.25q0.265625 0.234375 0.265625 0.625q0 0.375 -0.28125 0.625q-0.265625 0.234375 -0.890625 0.234375l-2.28125 0q-0.609375 0 -0.890625 -0.234375q-0.265625 -0.25 -0.265625 -0.640625q0 -0.375 0.265625 -0.609375q0.28125 -0.25 0.890625 -0.25l0.640625 0l0 -5.171875l-2.0 4.46875l-1.5 0l-2.015625 -4.46875zm14.679826 6.90625l0 -0.40625q-0.65625 0.34375 -1.453125 0.515625q-0.78125 0.171875 -1.421875 0.171875q-1.390626 0 -2.265626 -0.734375q-0.875 -0.734375 -0.875 -1.640625q0 -1.09375 1.109375 -2.015625q1.125 -0.9375 3.078126 -0.9375q0.796875 0 1.828125 0.171875l0 -0.421875q0 -0.390625 -0.34375 -0.625q-0.328125 -0.25 -1.265625 -0.25q-0.78125 0 -2.0 0.296875q-0.45312595 0.109375 -0.71875095 0.109375q-0.34375 0 -0.59375 -0.25q-0.234375 -0.25 -0.234375 -0.640625q0 -0.21875 0.078125 -0.375q0.09375 -0.15625 0.25 -0.25q0.15625 -0.109375 0.640625 -0.234375q0.64062595 -0.1875 1.296876 -0.28125q0.671875 -0.109375 1.21875 -0.109375q1.609375 0 2.5 0.703125q0.90625 0.6875 0.90625 1.890625l0 3.578125l0.296875 0q0.625 0 0.890625 0.25q0.265625 0.234375 0.265625 0.625q0 0.375 -0.265625 0.625q-0.265625 0.234375 -0.890625 0.234375l-2.03125 0zm0 -3.109375q-1.046875 -0.203125 -1.921875 -0.203125q-1.0625 0 -1.828126 0.515625q-0.46875 0.328125 -0.46875 0.671875q0 0.25 0.234375 0.40625q0.42187595 0.265625 1.156251 0.265625q0.625 0 1.40625 -0.234375q0.796875 -0.25 1.421875 -0.671875l0 -0.75zm9.69545 -7.8593755l0 9.234375l2.078125 0q0.6406231 0 0.9062481 0.25q0.265625 0.234375 0.265625 0.625q0 0.375 -0.265625 0.625q-0.265625 0.234375 -0.9062481 0.234375l-5.890625 0q-0.625 0 -0.890625 -0.234375q-0.265625 -0.25 -0.265625 -0.640625q0 -0.375 0.265625 -0.609375q0.265625 -0.25 0.890625 -0.25l2.078125 0l0 -7.5l-1.390625 0q-0.625 0 -0.890625 -0.23437548q-0.265625 -0.25 -0.265625 -0.640625q0 -0.375 0.265625 -0.609375q0.265625 -0.25 0.890625 -0.25l3.125 0zm12.242323 3.5937505q0.3125 -0.296875 0.640625 -0.296875q0.375 0 0.609375 0.28125q0.25 0.265625 0.25 0.875l0 1.125q0 0.625 -0.25 0.890625q-0.234375 0.25 -0.625 0.25q-0.359375 0 -0.609375 -0.203125q-0.171875 -0.15625 -0.28125 -0.625q-0.09375 -0.46875 -0.484375 -0.6875q-0.6875 -0.40625 -1.75 -0.40625q-1.21875 0 -1.96875 0.71875q-0.734375 0.71875 -0.734375 1.8125q0 1.015625 0.703125 1.609375q0.71875 0.578125 2.359375 0.578125q1.09375 0 1.765625 -0.21875q0.40625 -0.125 0.765625 -0.453125q0.375 -0.328125 0.671875 -0.328125q0.359375 0 0.609375 0.265625q0.265625 0.265625 0.265625 0.609375q0 0.578125 -0.796875 1.09375q-1.15625 0.765625 -3.40625 0.765625q-2.03125 0 -3.15625 -0.828125q-1.515625 -1.125 -1.515625 -3.078125q0 -1.859375 1.234375 -3.0625q1.234375 -1.21875 3.21875 -1.21875q0.71875 0 1.328125 0.140625q0.625 0.125 1.15625 0.390625zm12.19545 3.671875q0 1.0 -0.5625 1.9375q-0.546875 0.9375 -1.640625 1.5q-1.09375 0.546875 -2.28125 0.546875q-1.1875 0 -2.28125 -0.546875q-1.078125 -0.546875 -1.640625 -1.484375q-0.5625 -0.9375 -0.5625 -1.96875q0 -1.03125 0.5625 -2.03125q0.578125 -1.015625 1.65625 -1.578125q1.078125 -0.578125 2.265625 -0.578125q1.171875 0 2.265625 0.59375q1.109375 0.578125 1.65625 1.578125q0.5625 0.984375 0.5625 2.03125zm-1.734375 0.015625q0 -0.84375 -0.59375 -1.546875q-0.828125 -0.9375 -2.15625 -0.9375q-1.1875 0 -1.96875 0.75q-0.78125 0.75 -0.78125 1.734375q0 0.8125 0.78125 1.53125q0.796875 0.703125 1.96875 0.703125q1.15625 0 1.953125 -0.703125q0.796875 -0.71875 0.796875 -1.53125zm4.94545 -4.0l0 0.5q0.421875 -0.421875 0.765625 -0.578125q0.34375 -0.15625 0.796875 -0.15625q0.375 0 0.75 0.1875q0.375 0.1875 0.734375 0.5625q0.4375 -0.375 0.890625 -0.546875q0.46875 -0.1875 0.953125 -0.1875q0.96875 0 1.578125 0.515625q0.78125 0.671875 0.78125 1.765625l0 3.890625q0.546875 0 0.8125 0.25q0.265625 0.234375 0.265625 0.625q0 0.375 -0.265625 0.625q-0.265625 0.234375 -0.890625 0.234375l-1.65625 0l0 -5.46875q0 -0.40625 -0.140625 -0.546875q-0.140625 -0.15625 -0.4375 -0.15625q-0.28125 0 -0.53125 0.140625q-0.3125 0.21875 -0.765625 0.796875l0 3.5q0.546875 0 0.796875 0.25q0.265625 0.234375 0.265625 0.625q0 0.375 -0.265625 0.625q-0.25 0.234375 -0.875 0.234375l-1.65625 0l0 -5.46875q0 -0.390625 -0.15625 -0.546875q-0.140625 -0.15625 -0.4375 -0.15625q-0.296875 0 -0.59375 0.1875q-0.296875 0.1875 -0.71875 0.75l0 3.5q0.546875 0 0.8125 0.25q0.265625 0.234375 0.265625 0.625q0 0.375 -0.265625 0.625q-0.265625 0.234375 -0.890625 0.234375l-1.5625 0q-0.625 0 -0.890625 -0.234375q-0.265625 -0.25 -0.265625 -0.640625q0 -0.375 0.265625 -0.609375q0.25 -0.25 0.796875 -0.25l0 -4.21875q-0.546875 0 -0.796875 -0.234375q-0.265625 -0.25 -0.265625 -0.625q0 -0.390625 0.265625 -0.625q0.265625 -0.25 0.890625 -0.25l1.640625 0z" fill-rule="nonzero"/><path fill="#000000" fill-opacity="0.0" d="m72.96 0.77412283l20.88189 0l0 21.007875l-20.88189 0z" fill-rule="evenodd"/><path fill="#ffffff" d="m79.0225 8.898498l0 6.78125l1.75 0q0.625 0 0.890625 0.25q0.28125 0.23437405 0.28125 0.62499905q0 0.375 -0.28125 0.625q-0.265625 0.234375 -0.890625 0.234375l-5.234375 0q-0.625 0 -0.890625 -0.234375q-0.265625 -0.25 -0.265625 -0.640625q0 -0.375 0.265625 -0.60937405q0.265625 -0.25 0.890625 -0.25l1.75 0l0 -6.78125l-1.75 0q-0.625 0 -0.890625 -0.234375q-0.265625 -0.25 -0.265625 -0.640625q0 -0.39062548 0.265625 -0.6250005q0.265625 -0.25 0.890625 -0.25l5.234375 0.015625q0.625 0 0.890625 0.234375q0.28125 0.234375 0.28125 0.6250005q0 0.390625 -0.28125 0.640625q-0.265625 0.234375 -0.890625 0.234375l-1.75 0zm14.398575 3.390625q0 2.3125 -1.46875 3.843749q-1.46875 1.53125 -3.390625 1.53125q-1.734375 0 -3.125 -1.28125q-1.734375 -1.578124 -1.734375 -4.093749q0 -2.53125 1.734375 -4.109375q1.390625 -1.2812505 3.125 -1.2812505q1.921875 0 3.390625 1.5312505q1.46875 1.53125 1.46875 3.859375zm-1.734375 0q0 -1.578125 -0.953125 -2.609375q-0.953125 -1.046875 -2.171875 -1.046875q-1.203125 0 -2.171875 1.046875q-0.953125 1.03125 -0.953125 2.609375q0 1.578125 0.953125 2.609375q0.96875 1.03125 2.171875 1.03125q1.21875 0 2.171875 -1.03125q0.953125 -1.03125 0.953125 -2.609375z" fill-rule="nonzero"/></g></svg>