<svg xmlns="http://www.w3.org/2000/svg" viewBox="0 0 100 100"><path d="M 66.66 42.18 L 66.66 42.15 L 66.66 42.11 L 66.67 42.08 L 66.67 42.05 L 66.68 42.01 L 66.69 41.97 L 66.69 41.94 L 66.70 41.90 L 66.71 41.87 L 66.72 41.83 L 66.73 41.80 L 66.75 41.76 L 66.76 41.73 L 66.77 41.69 L 66.79 41.66 L 66.81 41.62 L 66.82 41.59 L 66.84 41.55 L 66.86 41.52 L 66.88 41.48 L 66.90 41.45 L 66.93 41.41 L 66.95 41.38 L 66.98 41.35 L 67.00 41.32 L 67.03 41.28 L 67.06 41.25 L 67.08 41.22 L 67.11 41.19 L 67.14 41.16 L 67.18 41.13 L 67.21 41.10 L 67.24 41.07 L 67.28 41.04 L 67.31 41.02 L 67.35 40.99 L 67.39 40.96 L 67.43 40.94 L 67.47 40.92 L 67.51 40.89 L 67.55 40.87 L 67.59 40.85 L 67.63 40.83 L 67.68 40.81 L 67.72 40.79 L 67.77 40.77 L 67.81 40.75 L 67.86 40.74 L 67.91 40.72 L 67.96 40.71 L 68.00 40.70 L 68.05 40.68 L 68.11 40.67 L 68.16 40.67 L 68.21 40.66 L 68.26 40.65 L 68.31 40.65 L 68.37 40.64 L 68.42 40.64 L 68.48 40.64 L 68.53 40.64 L 68.59 40.64 L 68.64 40.64 L 68.70 40.65 L 68.75 40.65 L 68.81 40.66 L 68.87 40.67 L 68.92 40.68 L 68.98 40.69 L 69.04 40.70 L 69.10 40.72 L 69.15 40.74 L 69.21 40.75 L 69.27 40.77 L 69.32 40.79 L 69.38 40.82 L 69.44 40.84 L 69.50 40.87 L 69.55 40.89 L 69.61 40.92 L 69.66 40.95 L 69.72 40.99 L 69.78 41.02 L 69.83 41.06 L 69.88 41.09 L 69.94 41.13 L 69.99 41.17 L 70.04 41.22 L 70.10 41.26 L 70.15 41.31 L 70.20 41.35 L 70.25 41.40 L 70.30 41.45 L 70.34 41.51 L 70.39 41.56 L 70.44 41.62 L 70.48 41.67 L 70.52 41.73 L 70.57 41.79 L 70.61 41.85 L 70.65 41.92 L 70.69 41.98 L 70.72 42.05 L 70.76 42.11 L 70.79 42.18 L 70.83 42.25 L 70.86 42.32 L 70.89 42.40 L 70.91 42.47 L 70.94 42.55 L 70.97 42.62 L 70.99 42.70 L 71.01 42.78 L 71.03 42.86 L 71.05 42.94 L 71.06 43.02 L 71.08 43.11 L 71.09 43.19 L 71.10 43.28 L 71.11 43.36 L 71.11 43.45 L 71.11 43.54 L 71.11 43.63 L 71.11 43.71 L 71.11 43.80 L 71.10 43.89 L 71.10 43.99 L 71.09 44.08 L 71.07 44.17 L 71.06 44.26 L 71.04 44.35 L 71.02 44.45 L 71.00 44.54 L 70.97 44.63 L 70.94 44.72 L 70.91 44.82 L 70.88 44.91 L 70.84 45.00 L 70.81 45.09 L 70.77 45.19 L 70.72 45.28 L 70.68 45.37 L 70.63 45.46 L 70.58 45.55 L 70.52 45.64 L 70.47 45.73 L 70.41 45.82 L 70.34 45.91 L 70.28 45.99 L 70.21 46.08 L 70.14 46.16 L 70.07 46.24 L 69.99 46.33 L 69.92 46.41 L 69.84 46.49 L 69.75 46.56 L 69.67 46.64 L 69.58 46.72 L 69.49 46.79 L 69.39 46.86 L 69.30 46.93 L 69.20 47.00 L 69.10 47.06 L 69.00 47.13 L 68.89 47.19 L 68.78 47.25 L 68.67 47.30 L 68.56 47.36 L 68.44 47.41 L 68.33 47.46 L 68.21 47.51 L 68.09 47.55 L 67.96 47.59 L 67.84 47.63 L 67.71 47.67 L 67.58 47.70 L 67.45 47.73 L 67.32 47.76 L 67.19 47.78 L 67.05 47.80 L 66.91 47.82 L 66.78 47.83 L 66.64 47.84 L 66.49 47.85 L 66.35 47.85 L 66.21 47.85 L 66.06 47.85 L 65.92 47.84 L 65.77 47.83 L 65.62 47.81 L 65.48 47.79 L 65.33 47.77 L 65.18 47.74 L 65.03 47.71 L 64.88 47.68 L 64.73 47.64 L 64.58 47.60 L 64.43 47.55 L 64.28 47.50 L 64.13 47.44 L 63.98 47.38 L 63.83 47.32 L 63.68 47.25 L 63.53 47.18 L 63.39 47.10 L 63.24 47.02 L 63.09 46.94 L 62.95 46.85 L 62.80 46.75 L 62.66 46.66 L 62.52 46.55 L 62.38 46.45 L 62.25 46.34 L 62.11 46.22 L 61.98 46.10 L 61.84 45.98 L 61.72 45.85 L 61.59 45.72 L 61.46 45.58 L 61.34 45.44 L 61.22 45.29 L 61.10 45.14 L 60.99 44.99 L 60.88 44.83 L 60.77 44.67 L 60.67 44.51 L 60.57 44.34 L 60.47 44.17 L 60.38 43.99 L 60.29 43.81 L 60.20 43.63 L 60.12 43.44 L 60.04 43.25 L 59.97 43.05 L 59.90 42.86 L 59.83 42.65 L 59.77 42.45 L 59.72 42.24 L 59.66 42.03 L 59.62 41.82 L 59.58 41.61 L 59.54 41.39 L 59.51 41.17 L 59.49 40.94 L 59.47 40.72 L 59.45 40.49 L 59.45 40.26 L 59.44 40.03 L 59.45 39.80 L 59.46 39.56 L 59.47 39.33 L 59.49 39.09 L 59.52 38.85 L 59.55 38.61 L 59.59 38.37 L 59.64 38.13 L 59.69 37.88 L 59.75 37.64 L 59.82 37.40 L 59.89 37.16 L 59.97 36.91 L 60.06 36.67 L 60.15 36.43 L 60.25 36.19 L 60.36 35.94 L 60.47 35.70 L 60.59 35.46 L 60.72 35.23 L 60.85 34.99 L 60.99 34.76 L 61.14 34.52 L 61.30 34.29 L 61.46 34.06 L 61.63 33.84 L 61.80 33.61 L 61.99 33.39 L 62.18 33.17 L 62.38 32.96 L 62.58 32.75 L 62.79 32.54 L 63.01 32.34 L 63.23 32.14 L 63.46 31.94 L 63.70 31.75 L 63.95 31.56 L 64.20 31.38 L 64.46 31.20 L 64.72 31.03 L 64.99 30.87 L 65.27 30.71 L 65.55 30.55 L 65.84 30.40 L 66.13 30.26 L 66.43 30.12 L 66.74 29.99 L 67.05 29.87 L 67.37 29.75 L 67.69 29.65 L 68.02 29.54 L 68.35 29.45 L 68.69 29.37 L 69.03 29.29 L 69.37 29.22 L 69.73 29.16 L 70.08 29.10 L 70.44 29.06 L 70.80 29.02 L 71.17 28.99 L 71.54 28.98 L 71.91 28.97 L 72.29 28.97 L 72.66 28.98 L 73.05 29.00 L 73.43 29.03 L 73.82 29.07 L 74.20 29.12 L 74.59 29.18 L 74.98 29.25 L 75.37 29.33 L 75.77 29.42 L 76.16 29.52 L 76.55 29.63 L 76.95 29.75 L 77.34 29.89 L 77.73 30.03 L 78.12 30.19 L 78.51 30.36 L 78.90 30.53 L 79.29 30.72 L 79.68 30.92 L 80.06 31.14 L 80.44 31.36 L 80.82 31.59 L 81.20 31.84 L 81.57 32.10 L 81.94 32.36 L 82.30 32.64 L 82.66 32.94 L 83.02 33.24 L 83.37 33.55 L 83.71 33.88 L 84.05 34.21 L 84.38 34.56 L 84.71 34.92 L 85.03 35.28 L 85.34 35.66 L 85.65 36.05 L 85.95 36.46 L 86.24 36.87 L 86.52 37.29 L 86.79 37.72 L 87.06 38.16 L 87.31 38.62 L 87.56 39.08 L 87.79 39.55 L 88.02 40.03 L 88.23 40.52 L 88.44 41.02 L 88.63 41.53 L 88.81 42.05 L 88.98 42.57 L 89.14 43.11 L 89.29 43.65 L 89.42 44.20 L 89.54 44.75 L 89.65 45.32 L 89.74 45.89 L 89.82 46.47 L 89.88 47.05 L 89.94 47.64 L 89.97 48.24 L 89.99 48.84 L 90.00 49.44 L 89.99 50.05 L 89.97 50.67 L 89.93 51.29 L 89.87 51.91 L 89.80 52.53 L 89.71 53.16 L 89.61 53.79 L 89.48 54.43 L 89.35 55.06 L 89.19 55.70 L 89.02 56.33 L 88.83 56.97 L 88.62 57.61 L 88.39 58.24 L 88.15 58.88 L 87.89 59.51 L 87.61 60.14 L 87.31 60.77 L 87.00 61.40 L 86.66 62.02 L 86.31 62.64 L 85.94 63.25 L 85.55 63.86 L 85.15 64.47 L 84.72 65.07 L 84.28 65.66 L 83.82 66.25 L 83.34 66.82 L 82.84 67.39 L 82.32 67.96 L 81.79 68.51 L 81.23 69.05 L 80.66 69.59 L 80.08 70.11 L 79.47 70.62 L 78.85 71.12 L 78.21 71.61 L 77.55 72.09 L 76.88 72.55 L 76.19 73.00 L 75.48 73.44 L 74.75 73.86 L 74.01 74.26 L 73.26 74.65 L 72.49 75.02 L 71.70 75.38 L 70.90 75.72 L 70.08 76.04 L 69.25 76.34 L 68.41 76.63 L 67.55 76.89 L 66.68 77.14 L 65.80 77.36 L 64.91 77.57 L 64.00 77.75 L 63.08 77.91 L 62.15 78.05 L 61.21 78.17 L 60.26 78.27 L 59.30 78.34 L 58.34 78.38 L 57.36 78.41 L 56.38 78.41 L 55.38 78.38 L 54.39 78.33 L 53.38 78.25 L 52.37 78.15 L 51.36 78.02 L 50.34 77.86 L 49.32 77.68 L 48.29 77.47 L 47.27 77.23 L 46.24 76.96 L 45.21 76.67 L 44.18 76.35 L 43.15 76.00 L 42.12 75.62 L 41.09 75.21 L 40.07 74.77 L 39.05 74.30 L 38.03 73.81 L 37.02 73.28 L 36.02 72.73 L 35.02 72.15 L 34.03 71.53 L 33.04 70.89 L 32.07 70.22 L 31.11 69.51 L 30.15 68.78 L 29.21 68.02 L 28.28 67.23 L 27.37 66.41 L 26.46 65.56 L 25.58 64.68 L 24.70 63.77 L 23.85 62.83 L 23.01 61.87 L 22.19 60.87 L 21.39 59.85 L 20.61 58.80 L 19.85 57.72 L 19.11 56.62 L 18.40 55.49 L 17.70 54.33 L 17.04 53.14 L 16.39 51.93 L 15.78 50.70 L 15.19 49.44 L 14.62 48.16 L 14.09 46.85 L 13.58 45.52 L 13.11 44.16 L 12.66 42.79 L 12.25 41.39 L 11.87 39.97 L 11.52 38.53 L 11.21 37.07 L 10.93 35.60 L 10.68 34.10 L 10.47 32.59 L 10.30 31.06 L 10.17 29.52 L 10.07 27.96 L 10.02 26.39 L 10.00 24.80 L 10.02 23.20 L 10.09 21.59" fill="none" stroke="#28a745" stroke-width="9" stroke-linecap="round" stroke-linejoin="round"/></svg>