<svg xmlns="http://www.w3.org/2000/svg" viewBox="0 0 100 100" width="100" height="100">
  <rect width="100" height="100" rx="22" fill="#343a40"/>
  <path d="M 62.49 44.14 L 62.50 44.11 L 62.50 44.09 L 62.50 44.06 L 62.50 44.03 L 62.51 44.01 L 62.51 43.98 L 62.52 43.95 L 62.53 43.93 L 62.53 43.90 L 62.54 43.87 L 62.55 43.85 L 62.56 43.82 L 62.57 43.79 L 62.58 43.77 L 62.59 43.74 L 62.60 43.72 L 62.62 43.69 L 62.63 43.66 L 62.65 43.64 L 62.66 43.61 L 62.68 43.59 L 62.70 43.56 L 62.71 43.54 L 62.73 43.51 L 62.75 43.49 L 62.77 43.46 L 62.79 43.44 L 62.81 43.42 L 62.84 43.39 L 62.86 43.37 L 62.88 43.35 L 62.91 43.33 L 62.93 43.30 L 62.96 43.28 L 62.99 43.26 L 63.01 43.24 L 63.04 43.22 L 63.07 43.20 L 63.10 43.19 L 63.13 43.17 L 63.16 43.15 L 63.19 43.14 L 63.22 43.12 L 63.26 43.11 L 63.29 43.09 L 63.32 43.08 L 63.36 43.06 L 63.39 43.05 L 63.43 43.04 L 63.47 43.03 L 63.50 43.02 L 63.54 43.01 L 63.58 43.01 L 63.62 43.00 L 63.66 42.99 L 63.70 42.99 L 63.74 42.98 L 63.78 42.98 L 63.82 42.98 L 63.86 42.98 L 63.90 42.98 L 63.94 42.98 L 63.98 42.98 L 64.02 42.99 L 64.06 42.99 L 64.11 42.99 L 64.15 43.00 L 64.19 43.01 L 64.24 43.02 L 64.28 43.03 L 64.32 43.04 L 64.36 43.05 L 64.41 43.06 L 64.45 43.08 L 64.49 43.10 L 64.54 43.11 L 64.58 43.13 L 64.62 43.15 L 64.66 43.17 L 64.71 43.19 L 64.75 43.22 L 64.79 43.24 L 64.83 43.27 L 64.87 43.29 L 64.91 43.32 L 64.95 43.35 L 64.99 43.38 L 65.03 43.41 L 65.07 43.45 L 65.11 43.48 L 65.15 43.52 L 65.18 43.55 L 65.22 43.59 L 65.26 43.63 L 65.29 43.67 L 65.33 43.71 L 65.36 43.75 L 65.39 43.80 L 65.42 43.84 L 65.46 43.89 L 65.48 43.94 L 65.51 43.99 L 65.54 44.03 L 65.57 44.09 L 65.59 44.14 L 65.62 44.19 L 65.64 44.24 L 65.67 44.30 L 65.69 44.35 L 65.71 44.41 L 65.72 44.47 L 65.74 44.53 L 65.76 44.59 L 65.77 44.65 L 65.79 44.71 L 65.80 44.77 L 65.81 44.83 L 65.82 44.89 L 65.82 44.96 L 65.83 45.02 L 65.83 45.09 L 65.84 45.15 L 65.84 45.22 L 65.83 45.29 L 65.83 45.35 L 65.83 45.42 L 65.82 45.49 L 65.81 45.56 L 65.80 45.63 L 65.79 45.70 L 65.78 45.76 L 65.76 45.83 L 65.75 45.90 L 65.73 45.97 L 65.71 46.04 L 65.68 46.11 L 65.66 46.18 L 65.63 46.25 L 65.60 46.32 L 65.57 46.39 L 65.54 46.46 L 65.51 46.53 L 65.47 46.60 L 65.43 46.66 L 65.39 46.73 L 65.35 46.80 L 65.30 46.86 L 65.26 46.93 L 65.21 46.99 L 65.16 47.06 L 65.11 47.12 L 65.05 47.18 L 65.00 47.24 L 64.94 47.31 L 64.88 47.36 L 64.81 47.42 L 64.75 47.48 L 64.68 47.54 L 64.62 47.59 L 64.55 47.64 L 64.47 47.70 L 64.40 47.75 L 64.32 47.80 L 64.25 47.84 L 64.17 47.89 L 64.09 47.93 L 64.00 47.98 L 63.92 48.02 L 63.83 48.06 L 63.75 48.09 L 63.66 48.13 L 63.57 48.16 L 63.47 48.19 L 63.38 48.22 L 63.28 48.25 L 63.19 48.27 L 63.09 48.30 L 62.99 48.32 L 62.89 48.33 L 62.79 48.35 L 62.69 48.36 L 62.58 48.37 L 62.48 48.38 L 62.37 48.39 L 62.26 48.39 L 62.16 48.39 L 62.05 48.39 L 61.94 48.38 L 61.83 48.37 L 61.72 48.36 L 61.61 48.35 L 61.50 48.33 L 61.38 48.31 L 61.27 48.29 L 61.16 48.26 L 61.05 48.23 L 60.93 48.20 L 60.82 48.16 L 60.71 48.12 L 60.60 48.08 L 60.48 48.04 L 60.37 47.99 L 60.26 47.94 L 60.15 47.89 L 60.04 47.83 L 59.93 47.77 L 59.82 47.70 L 59.71 47.64 L 59.60 47.57 L 59.50 47.49 L 59.39 47.42 L 59.29 47.34 L 59.18 47.25 L 59.08 47.17 L 58.98 47.08 L 58.88 46.98 L 58.79 46.89 L 58.69 46.79 L 58.60 46.68 L 58.51 46.58 L 58.42 46.47 L 58.33 46.36 L 58.24 46.24 L 58.16 46.13 L 58.08 46.00 L 58.00 45.88 L 57.93 45.75 L 57.85 45.62 L 57.78 45.49 L 57.71 45.36 L 57.65 45.22 L 57.59 45.08 L 57.53 44.94 L 57.47 44.79 L 57.42 44.64 L 57.37 44.49 L 57.33 44.34 L 57.29 44.18 L 57.25 44.03 L 57.21 43.87 L 57.18 43.70 L 57.16 43.54 L 57.13 43.38 L 57.12 43.21 L 57.10 43.04 L 57.09 42.87 L 57.08 42.70 L 57.08 42.52 L 57.08 42.35 L 57.09 42.17 L 57.10 41.99 L 57.12 41.82 L 57.14 41.64 L 57.16 41.46 L 57.19 41.28 L 57.23 41.10 L 57.27 40.91 L 57.31 40.73 L 57.36 40.55 L 57.42 40.37 L 57.48 40.18 L 57.54 40.00 L 57.61 39.82 L 57.69 39.64 L 57.77 39.46 L 57.85 39.28 L 57.94 39.10 L 58.04 38.92 L 58.14 38.74 L 58.24 38.57 L 58.36 38.39 L 58.47 38.22 L 58.59 38.05 L 58.72 37.88 L 58.85 37.71 L 58.99 37.54 L 59.13 37.38 L 59.28 37.22 L 59.43 37.06 L 59.59 36.90 L 59.76 36.75 L 59.92 36.60 L 60.10 36.46 L 60.28 36.31 L 60.46 36.17 L 60.65 36.04 L 60.84 35.90 L 61.04 35.77 L 61.24 35.65 L 61.45 35.53 L 61.66 35.41 L 61.88 35.30 L 62.10 35.19 L 62.32 35.09 L 62.55 35.00 L 62.79 34.90 L 63.03 34.82 L 63.27 34.73 L 63.51 34.66 L 63.76 34.59 L 64.01 34.52 L 64.27 34.47 L 64.53 34.41 L 64.79 34.37 L 65.06 34.33 L 65.33 34.29 L 65.60 34.27 L 65.88 34.25 L 66.15 34.23 L 66.43 34.23 L 66.71 34.23 L 67.00 34.23 L 67.28 34.25 L 67.57 34.27 L 67.86 34.30 L 68.15 34.34 L 68.44 34.38 L 68.74 34.43 L 69.03 34.49 L 69.32 34.56 L 69.62 34.64 L 69.91 34.72 L 70.21 34.82 L 70.50 34.92 L 70.80 35.02 L 71.09 35.14 L 71.39 35.27 L 71.68 35.40 L 71.97 35.54 L 72.26 35.69 L 72.55 35.85 L 72.83 36.02 L 73.12 36.19 L 73.40 36.38 L 73.68 36.57 L 73.95 36.77 L 74.23 36.98 L 74.50 37.20 L 74.76 37.43 L 75.03 37.66 L 75.28 37.91 L 75.54 38.16 L 75.79 38.42 L 76.03 38.69 L 76.27 38.96 L 76.51 39.25 L 76.74 39.54 L 76.96 39.84 L 77.18 40.15 L 77.39 40.47 L 77.59 40.79 L 77.79 41.12 L 77.98 41.46 L 78.17 41.81 L 78.35 42.16 L 78.51 42.52 L 78.68 42.89 L 78.83 43.27 L 78.97 43.65 L 79.11 44.04 L 79.24 44.43 L 79.36 44.83 L 79.46 45.24 L 79.56 45.65 L 79.65 46.07 L 79.73 46.49 L 79.80 46.92 L 79.86 47.35 L 79.91 47.79 L 79.95 48.23 L 79.98 48.68 L 79.99 49.13 L 80.00 49.58 L 79.99 50.04 L 79.98 50.50 L 79.95 50.96 L 79.90 51.43 L 79.85 51.90 L 79.78 52.37 L 79.70 52.84 L 79.61 53.32 L 79.51 53.80 L 79.39 54.27 L 79.26 54.75 L 79.12 55.23 L 78.96 55.70 L 78.79 56.18 L 78.61 56.66 L 78.42 57.13 L 78.21 57.61 L 77.98 58.08 L 77.75 58.55 L 77.50 59.01 L 77.23 59.48 L 76.96 59.94 L 76.66 60.40 L 76.36 60.85 L 76.04 61.30 L 75.71 61.74 L 75.36 62.18 L 75.00 62.62 L 74.63 63.05 L 74.24 63.47 L 73.84 63.88 L 73.43 64.29 L 73.00 64.69 L 72.56 65.08 L 72.10 65.47 L 71.64 65.84 L 71.16 66.21 L 70.66 66.57 L 70.16 66.91 L 69.64 67.25 L 69.11 67.58 L 68.57 67.89 L 68.01 68.20 L 67.44 68.49 L 66.87 68.77 L 66.28 69.04 L 65.67 69.29 L 65.06 69.53 L 64.44 69.76 L 63.81 69.97 L 63.17 70.17 L 62.51 70.35 L 61.85 70.52 L 61.18 70.68 L 60.50 70.81 L 59.81 70.94 L 59.11 71.04 L 58.41 71.13 L 57.70 71.20 L 56.98 71.25 L 56.25 71.29 L 55.52 71.30 L 54.78 71.30 L 54.04 71.28 L 53.29 71.25 L 52.54 71.19 L 51.78 71.11 L 51.02 71.01 L 50.25 70.89 L 49.49 70.76 L 48.72 70.60 L 47.95 70.42 L 47.18 70.22 L 46.40 70.00 L 45.63 69.76 L 44.86 69.50 L 44.09 69.21 L 43.32 68.91 L 42.55 68.58 L 41.79 68.23 L 41.02 67.86 L 40.27 67.46 L 39.51 67.05 L 38.76 66.61 L 38.02 66.15 L 37.28 65.67 L 36.55 65.16 L 35.83 64.63 L 35.12 64.09 L 34.41 63.51 L 33.71 62.92 L 33.02 62.30 L 32.35 61.67 L 31.68 61.01 L 31.03 60.33 L 30.39 59.62 L 29.76 58.90 L 29.14 58.15 L 28.54 57.39 L 27.96 56.60 L 27.39 55.79 L 26.83 54.96 L 26.30 54.12 L 25.78 53.25 L 25.28 52.36 L 24.79 51.45 L 24.33 50.52 L 23.89 49.58 L 23.47 48.62 L 23.07 47.64 L 22.69 46.64 L 22.33 45.62 L 22.00 44.59 L 21.69 43.54 L 21.40 42.48 L 21.14 41.40 L 20.90 40.31 L 20.70 39.20 L 20.51 38.08 L 20.36 36.94 L 20.23 35.80 L 20.13 34.64 L 20.06 33.47 L 20.01 32.29 L 20.00 31.10 L 20.02 29.90 L 20.06 28.70" fill="none" stroke="#28a745" stroke-width="8"
        stroke-linecap="round" stroke-linejoin="round"/>
</svg>
